<?xml version="1.0" encoding="UTF-8"?>
<svg xmlns="http://www.w3.org/2000/svg" xmlns:xlink="http://www.w3.org/1999/xlink" width="810pt" height="809.999993pt" viewBox="0 0 810 809.999993" version="1.2">
<g id="surface1">
<path style=" stroke:none;fill-rule:nonzero;fill:rgb(35.289001%,31.369019%,91.369629%);fill-opacity:1;" d="M 416.394531 803.285156 C 409.996094 809.246094 400.003906 809.246094 393.605469 803.285156 C 391.238281 801.09375 386.945312 797.0625 380.984375 791.191406 C 371.082031 781.550781 360.035156 770.417969 348.117188 757.972656 C 314.199219 722.476562 280.367188 683.734375 248.636719 642.804688 C 192.71875 570.671875 149.859375 499.765625 125.144531 432.800781 C 110.066406 391.78125 102.089844 352.957031 102.089844 316.582031 C 102.089844 131.910156 232.511719 0 405 0 C 577.488281 0 707.910156 131.910156 707.910156 316.582031 C 707.910156 352.957031 699.933594 391.78125 684.855469 432.800781 C 660.140625 499.765625 617.28125 570.671875 561.363281 642.804688 C 529.632812 683.734375 495.800781 722.476562 461.882812 757.972656 C 449.964844 770.417969 438.917969 781.550781 429.015625 791.191406 C 423.054688 797.0625 418.761719 801.09375 416.394531 803.285156 Z M 416.394531 803.285156 "/>
<path style=" stroke:none;fill-rule:nonzero;fill:rgb(100%,100%,100%);fill-opacity:1;" d="M 405 437.535156 C 312.09375 437.535156 236.71875 362.15625 236.71875 269.253906 C 236.71875 176.347656 312.09375 100.96875 405 100.96875 C 497.90625 100.96875 573.28125 176.347656 573.28125 269.253906 C 573.28125 362.15625 497.90625 437.535156 405 437.535156 Z M 405 437.535156 "/>
</g>
</svg>
