<?xml version="1.0" encoding="UTF-8"?>
<svg xmlns="http://www.w3.org/2000/svg" xmlns:xlink="http://www.w3.org/1999/xlink" width="810pt" height="809.999993pt" viewBox="0 0 810 809.999993" version="1.2">
<defs>
<clipPath id="clip1">
  <path d="M 81.417969 130.378906 L 728.53125 130.378906 L 728.53125 683.644531 L 81.417969 683.644531 Z M 81.417969 130.378906 "/>
</clipPath>
<clipPath id="clip2">
  <path d="M 130 130.378906 L 728.53125 130.378906 L 728.53125 608.78125 L 130 608.78125 Z M 130 130.378906 "/>
</clipPath>
<clipPath id="clip3">
  <path d="M 106.003906 144.601562 L 670 144.601562 L 670 683.644531 L 106.003906 683.644531 Z M 106.003906 144.601562 "/>
</clipPath>
</defs>
<g id="surface1">
<path style=" stroke:none;fill-rule:nonzero;fill:rgb(100%,100%,100%);fill-opacity:1;" d="M 407.25 4.5 C 400.660156 4.5 394.070312 4.660156 387.488281 4.984375 C 380.90625 5.308594 374.332031 5.792969 367.773438 6.441406 C 361.214844 7.085938 354.675781 7.890625 348.152344 8.859375 C 341.632812 9.828125 335.140625 10.953125 328.675781 12.238281 C 322.210938 13.523438 315.785156 14.96875 309.390625 16.570312 C 302.996094 18.171875 296.644531 19.929688 290.335938 21.84375 C 284.03125 23.753906 277.773438 25.824219 271.566406 28.042969 C 265.363281 30.265625 259.214844 32.636719 253.125 35.15625 C 247.035156 37.679688 241.011719 40.351562 235.050781 43.167969 C 229.09375 45.988281 223.207031 48.949219 217.394531 52.054688 C 211.582031 55.164062 205.847656 58.410156 200.195312 61.800781 C 194.542969 65.1875 188.972656 68.714844 183.492188 72.375 C 178.011719 76.039062 172.625 79.832031 167.332031 83.757812 C 162.039062 87.683594 156.84375 91.738281 151.75 95.921875 C 146.652344 100.101562 141.664062 104.40625 136.78125 108.832031 C 131.894531 113.257812 127.125 117.800781 122.460938 122.460938 C 117.800781 127.125 113.257812 131.894531 108.832031 136.78125 C 104.40625 141.664062 100.101562 146.652344 95.921875 151.75 C 91.738281 156.84375 87.683594 162.039062 83.757812 167.332031 C 79.832031 172.625 76.039062 178.015625 72.375 183.496094 C 68.714844 188.976562 65.1875 194.542969 61.800781 200.195312 C 58.410156 205.847656 55.164062 211.582031 52.054688 217.394531 C 48.949219 223.207031 45.988281 229.09375 43.167969 235.050781 C 40.351562 241.011719 37.679688 247.035156 35.15625 253.125 C 32.636719 259.214844 30.261719 265.363281 28.042969 271.566406 C 25.824219 277.773438 23.753906 284.03125 21.84375 290.339844 C 19.929688 296.644531 18.171875 302.996094 16.570312 309.390625 C 14.96875 315.785156 13.523438 322.210938 12.238281 328.675781 C 10.953125 335.140625 9.828125 341.632812 8.859375 348.15625 C 7.890625 354.675781 7.085938 361.214844 6.4375 367.773438 C 5.792969 374.332031 5.308594 380.90625 4.984375 387.488281 C 4.660156 394.070312 4.5 400.660156 4.5 407.25 C 4.5 413.839844 4.660156 420.429688 4.984375 427.011719 C 5.308594 433.59375 5.792969 440.167969 6.4375 446.726562 C 7.085938 453.285156 7.890625 459.824219 8.859375 466.347656 C 9.828125 472.867188 10.953125 479.359375 12.238281 485.824219 C 13.523438 492.289062 14.96875 498.714844 16.570312 505.109375 C 18.171875 511.503906 19.929688 517.855469 21.84375 524.164062 C 23.753906 530.46875 25.824219 536.726562 28.042969 542.933594 C 30.261719 549.136719 32.636719 555.285156 35.15625 561.375 C 37.679688 567.464844 40.351562 573.488281 43.167969 579.449219 C 45.988281 585.40625 48.949219 591.292969 52.054688 597.105469 C 55.164062 602.917969 58.410156 608.652344 61.800781 614.304688 C 65.1875 619.957031 68.714844 625.527344 72.375 631.007812 C 76.039062 636.488281 79.832031 641.875 83.757812 647.167969 C 87.683594 652.460938 91.738281 657.65625 95.921875 662.753906 C 100.101562 667.847656 104.40625 672.835938 108.832031 677.71875 C 113.257812 682.605469 117.800781 687.375 122.460938 692.039062 C 127.125 696.699219 131.894531 701.242188 136.78125 705.667969 C 141.664062 710.09375 146.652344 714.398438 151.75 718.578125 C 156.84375 722.761719 162.039062 726.816406 167.332031 730.742188 C 172.625 734.667969 178.011719 738.460938 183.492188 742.125 C 188.972656 745.785156 194.542969 749.3125 200.195312 752.699219 C 205.847656 756.089844 211.582031 759.335938 217.394531 762.445312 C 223.207031 765.550781 229.09375 768.511719 235.050781 771.332031 C 241.011719 774.148438 247.035156 776.820312 253.125 779.34375 C 259.214844 781.863281 265.363281 784.234375 271.566406 786.457031 C 277.773438 788.675781 284.03125 790.746094 290.335938 792.65625 C 296.644531 794.570312 302.996094 796.328125 309.390625 797.929688 C 315.785156 799.53125 322.210938 800.976562 328.675781 802.261719 C 335.140625 803.546875 341.632812 804.671875 348.152344 805.640625 C 354.675781 806.609375 361.214844 807.414062 367.773438 808.0625 C 374.332031 808.707031 380.90625 809.191406 387.488281 809.515625 C 394.070312 809.839844 400.660156 810 407.25 810 C 413.839844 810 420.429688 809.839844 427.011719 809.515625 C 433.59375 809.191406 440.167969 808.707031 446.726562 808.0625 C 453.285156 807.414062 459.824219 806.609375 466.34375 805.640625 C 472.867188 804.671875 479.359375 803.546875 485.824219 802.261719 C 492.289062 800.976562 498.714844 799.53125 505.109375 797.929688 C 511.503906 796.328125 517.855469 794.570312 524.160156 792.65625 C 530.46875 790.746094 536.726562 788.675781 542.933594 786.457031 C 549.136719 784.234375 555.285156 781.863281 561.375 779.34375 C 567.464844 776.820312 573.488281 774.148438 579.449219 771.332031 C 585.40625 768.511719 591.292969 765.550781 597.105469 762.445312 C 602.917969 759.335938 608.652344 756.089844 614.304688 752.699219 C 619.957031 749.3125 625.523438 745.785156 631.003906 742.125 C 636.484375 738.460938 641.875 734.667969 647.167969 730.742188 C 652.460938 726.816406 657.65625 722.761719 662.75 718.578125 C 667.847656 714.398438 672.835938 710.09375 677.71875 705.667969 C 682.605469 701.242188 687.375 696.699219 692.039062 692.039062 C 696.699219 687.375 701.242188 682.605469 705.667969 677.71875 C 710.09375 672.835938 714.398438 667.847656 718.578125 662.753906 C 722.761719 657.65625 726.816406 652.460938 730.742188 647.167969 C 734.667969 641.875 738.460938 636.488281 742.125 631.007812 C 745.785156 625.527344 749.3125 619.957031 752.699219 614.304688 C 756.089844 608.652344 759.335938 602.917969 762.445312 597.105469 C 765.550781 591.292969 768.511719 585.40625 771.332031 579.449219 C 774.148438 573.488281 776.820312 567.464844 779.34375 561.375 C 781.863281 555.285156 784.234375 549.136719 786.457031 542.933594 C 788.675781 536.726562 790.746094 530.46875 792.65625 524.164062 C 794.570312 517.855469 796.328125 511.503906 797.929688 505.109375 C 799.53125 498.714844 800.976562 492.289062 802.261719 485.824219 C 803.546875 479.359375 804.671875 472.867188 805.640625 466.347656 C 806.609375 459.824219 807.414062 453.285156 808.0625 446.726562 C 808.707031 440.167969 809.191406 433.59375 809.515625 427.011719 C 809.839844 420.429688 810 413.839844 810 407.25 C 810 400.660156 809.839844 394.070312 809.515625 387.488281 C 809.191406 380.90625 808.707031 374.332031 808.0625 367.773438 C 807.414062 361.214844 806.609375 354.675781 805.640625 348.15625 C 804.671875 341.632812 803.546875 335.140625 802.261719 328.675781 C 800.976562 322.210938 799.53125 315.785156 797.929688 309.390625 C 796.328125 302.996094 794.570312 296.644531 792.65625 290.339844 C 790.746094 284.03125 788.675781 277.773438 786.457031 271.566406 C 784.234375 265.363281 781.863281 259.214844 779.34375 253.125 C 776.820312 247.035156 774.148438 241.011719 771.332031 235.050781 C 768.511719 229.09375 765.550781 223.207031 762.445312 217.394531 C 759.335938 211.582031 756.089844 205.847656 752.699219 200.195312 C 749.3125 194.542969 745.785156 188.976562 742.125 183.496094 C 738.460938 178.015625 734.667969 172.625 730.742188 167.332031 C 726.816406 162.039062 722.761719 156.84375 718.578125 151.75 C 714.398438 146.652344 710.09375 141.664062 705.667969 136.78125 C 701.242188 131.894531 696.699219 127.125 692.039062 122.460938 C 687.375 117.800781 682.605469 113.257812 677.71875 108.832031 C 672.835938 104.40625 667.847656 100.101562 662.75 95.921875 C 657.65625 91.738281 652.460938 87.683594 647.167969 83.757812 C 641.875 79.832031 636.484375 76.039062 631.003906 72.375 C 625.523438 68.714844 619.957031 65.1875 614.304688 61.800781 C 608.652344 58.410156 602.917969 55.164062 597.105469 52.054688 C 591.292969 48.949219 585.40625 45.988281 579.449219 43.167969 C 573.488281 40.351562 567.464844 37.679688 561.375 35.15625 C 555.285156 32.636719 549.136719 30.265625 542.933594 28.042969 C 536.726562 25.824219 530.46875 23.753906 524.160156 21.84375 C 517.855469 19.929688 511.503906 18.171875 505.109375 16.570312 C 498.714844 14.96875 492.289062 13.523438 485.824219 12.238281 C 479.359375 10.953125 472.867188 9.828125 466.34375 8.859375 C 459.824219 7.890625 453.285156 7.085938 446.726562 6.441406 C 440.167969 5.792969 433.59375 5.308594 427.011719 4.984375 C 420.429688 4.660156 413.839844 4.5 407.25 4.5 Z M 407.25 4.5 "/>
<g clip-path="url(#clip1)" clip-rule="nonzero">
<path style=" stroke:none;fill-rule:nonzero;fill:rgb(94.509888%,28.62854%,45.878601%);fill-opacity:1;" d="M 728.535156 370.605469 C 728.535156 491.410156 680.023438 591.375 616.859375 608.292969 C 616.859375 608.292969 566.609375 627.554688 522.210938 569.136719 C 521.269531 568.121094 520.199219 566.914062 519.027344 565.5 L 279.445312 496.609375 C 277.953125 525.484375 241.089844 533.542969 232.734375 535 L 279.394531 664.109375 C 279.519531 664.464844 279.496094 664.851562 279.328125 665.1875 C 279.164062 665.519531 278.863281 665.765625 278.503906 665.871094 L 221.789062 682.773438 C 219.554688 683.394531 217.367188 683.707031 215.261719 683.707031 C 191.457031 683.703125 183.503906 645.234375 183.179688 643.597656 L 148.425781 504.089844 L 145.828125 504.21875 C 145.800781 504.21875 145.78125 504.21875 145.757812 504.21875 C 145.386719 504.21875 145.035156 504.074219 144.777344 503.804688 C 144.582031 503.605469 126.042969 484.046875 114.753906 447.859375 C 93.886719 436.253906 80 414.898438 81.53125 378.765625 C 82.949219 345.289062 98.058594 327.132812 117.191406 317.671875 C 121.574219 303.152344 127.234375 288.429688 134.171875 273.589844 C 134.398438 273.101562 134.894531 272.792969 135.4375 272.808594 L 287.347656 276.953125 C 287.851562 276.964844 288.308594 277.261719 288.527344 277.714844 C 288.535156 277.722656 288.535156 277.726562 288.535156 277.730469 L 539.054688 155.386719 C 545.960938 148.417969 550.488281 144.988281 550.589844 144.910156 C 551.191406 144.457031 552.046875 144.585938 552.488281 145.1875 C 552.503906 145.203125 552.503906 145.222656 552.519531 145.238281 C 566.644531 135.628906 581.914062 130.378906 597.851562 130.378906 C 670.027344 130.378906 728.535156 237.933594 728.535156 370.605469 "/>
</g>
<g clip-path="url(#clip2)" clip-rule="nonzero">
<path style=" stroke:none;fill-rule:nonzero;fill:rgb(96.859741%,80.389404%,20.388794%);fill-opacity:1;" d="M 452.667969 225.273438 C 452.617188 225.234375 452.574219 225.199219 452.523438 225.160156 L 446.652344 227.765625 C 446.632812 227.882812 446.617188 228.003906 446.597656 228.125 C 446.496094 228.046875 446.425781 227.976562 446.332031 227.90625 L 354.667969 268.613281 C 354.480469 269.363281 354.289062 270.105469 354.097656 270.867188 C 353.117188 270.609375 352.242188 270.378906 351.277344 270.121094 L 275.851562 303.617188 C 274.78125 306.292969 273.703125 309.191406 272.640625 312.289062 C 271.019531 319.949219 268.945312 326.394531 267.207031 331.066406 C 266.933594 332.214844 266.660156 333.378906 266.398438 334.566406 C 266.066406 336.078125 265.742188 337.644531 265.429688 339.238281 L 465.738281 332.390625 C 467.132812 313.015625 470.011719 294.304688 474.394531 276.433594 C 480.941406 249.753906 490.808594 224.867188 503.714844 202.425781 L 502.234375 203.082031 L 453.957031 224.515625 C 453.527344 224.769531 453.09375 225.015625 452.667969 225.273438 Z M 134.179688 404.207031 L 217.289062 404.207031 C 217.789062 404.207031 218.269531 404.101562 218.714844 403.933594 C 218.882812 403.652344 219.042969 403.367188 219.199219 403.078125 C 219.296875 403.238281 219.386719 403.398438 219.484375 403.550781 C 220.59375 402.832031 221.339844 401.585938 221.339844 400.160156 C 221.339844 397.929688 219.523438 396.113281 217.289062 396.113281 L 134.179688 396.113281 C 131.941406 396.113281 130.132812 397.929688 130.132812 400.160156 C 130.132812 402.394531 131.941406 404.207031 134.179688 404.207031 Z M 148.265625 376.800781 C 145.726562 379.183594 142.390625 379.933594 140.84375 383.148438 C 146.417969 384 148.910156 381.96875 148.265625 376.800781 Z M 134.179688 383.984375 C 131.941406 383.984375 130.132812 382.171875 130.132812 379.9375 C 130.132812 377.707031 131.941406 375.898438 134.179688 375.898438 L 217.289062 375.898438 C 219.523438 375.898438 221.339844 377.707031 221.339844 379.9375 C 221.339844 382.171875 219.523438 383.984375 217.289062 383.984375 Z M 134.179688 356.425781 C 131.941406 356.425781 130.132812 358.234375 130.132812 360.472656 C 130.132812 362.703125 131.941406 364.511719 134.179688 364.511719 L 217.289062 364.511719 C 219.523438 364.511719 221.339844 362.703125 221.339844 360.472656 C 221.339844 358.234375 219.523438 356.425781 217.289062 356.425781 Z M 616.859375 608.292969 C 644.835938 538.945312 657.800781 478.273438 660.902344 425.726562 C 672.449219 415.265625 680.21875 395.761719 680.21875 373.40625 C 680.21875 345.746094 668.324219 322.441406 652.097656 315.253906 C 626.253906 205.285156 556.519531 153.660156 549.902344 148.972656 C 551.347656 147.746094 552.175781 147.121094 552.21875 147.089844 C 552.804688 146.652344 552.925781 145.832031 552.519531 145.238281 C 566.644531 135.628906 581.914062 130.378906 597.851562 130.378906 C 670.027344 130.378906 728.535156 237.933594 728.535156 370.605469 C 728.535156 491.410156 680.023438 591.375 616.859375 608.292969 "/>
</g>
<g clip-path="url(#clip3)" clip-rule="nonzero">
<path style=" stroke:none;fill-rule:nonzero;fill:rgb(10.198975%,11.759949%,17.649841%);fill-opacity:1;" d="M 627.542969 367.347656 C 627.542969 385.648438 637.035156 400.484375 648.746094 400.484375 C 660.460938 400.484375 669.953125 385.648438 669.953125 367.347656 C 669.953125 349.042969 660.460938 334.203125 648.746094 334.203125 C 637.035156 334.203125 627.542969 349.042969 627.542969 367.347656 Z M 118.175781 449.640625 C 123.003906 464.335938 128.972656 476.066406 134.207031 484.667969 C 140.015625 494.214844 144.914062 499.902344 146.328125 501.472656 L 276.265625 494.960938 C 252.539062 422.273438 256.347656 367.253906 263.78125 333.808594 C 270.484375 303.636719 280.976562 285.496094 284.785156 279.601562 L 284.710938 279.601562 L 250.996094 278.679688 L 136.257812 275.550781 C 101.445312 350.578125 106.109375 408.09375 116.183594 443.171875 C 116.820312 445.390625 117.488281 447.546875 118.175781 449.640625 Z M 276.640625 497.664062 L 151.195312 503.953125 L 185.828125 643.007812 C 185.917969 643.449219 193.683594 680.984375 215.261719 680.988281 C 217.117188 680.988281 219.058594 680.710938 221.035156 680.160156 L 276.347656 663.679688 L 229.613281 534.371094 C 229.472656 533.984375 229.515625 533.554688 229.734375 533.199219 C 229.953125 532.847656 230.316406 532.613281 230.726562 532.566406 C 231.164062 532.507812 274 526.757812 276.640625 497.664062 Z M 279.414062 496.605469 L 279.445312 496.609375 C 277.953125 525.484375 241.089844 533.542969 232.734375 535 L 279.394531 664.109375 C 279.519531 664.464844 279.496094 664.851562 279.328125 665.1875 C 279.164062 665.519531 278.863281 665.765625 278.503906 665.871094 L 221.789062 682.773438 C 219.554688 683.394531 217.367188 683.707031 215.261719 683.707031 C 191.457031 683.703125 183.503906 645.234375 183.179688 643.597656 L 148.425781 504.089844 L 145.828125 504.21875 C 145.800781 504.21875 145.78125 504.21875 145.757812 504.21875 C 145.386719 504.21875 145.035156 504.074219 144.777344 503.804688 C 144.582031 503.605469 126.042969 484.046875 114.753906 447.859375 C 114.351562 446.566406 113.957031 445.257812 113.570312 443.917969 C 107.050781 421.222656 104.753906 396.921875 106.753906 371.703125 C 108.140625 354.117188 111.640625 336.058594 117.191406 317.671875 C 121.574219 303.152344 127.234375 288.429688 134.171875 273.589844 C 134.398438 273.101562 134.894531 272.792969 135.4375 272.808594 L 287.347656 276.953125 C 287.851562 276.964844 288.308594 277.261719 288.527344 277.714844 C 288.535156 277.722656 288.535156 277.726562 288.535156 277.730469 C 288.746094 278.179688 288.699219 278.714844 288.402344 279.117188 C 288.3125 279.242188 282.257812 287.601562 275.851562 303.617188 C 274.78125 306.292969 273.703125 309.191406 272.640625 312.289062 C 270.726562 317.871094 268.867188 324.128906 267.207031 331.066406 C 266.933594 332.214844 266.660156 333.378906 266.398438 334.566406 C 266.066406 336.078125 265.742188 337.644531 265.429688 339.238281 C 258.742188 372.941406 256.378906 426.246094 279.40625 495.800781 C 279.496094 496.0625 279.492188 496.339844 279.414062 496.605469 Z M 628.609375 427.984375 C 609.636719 404.144531 603.402344 378.457031 610.085938 351.628906 C 615.085938 331.566406 625.847656 318.355469 625.953125 318.21875 C 626.429688 317.640625 626.347656 316.785156 625.773438 316.308594 C 625.191406 315.828125 624.332031 315.910156 623.855469 316.492188 C 623.402344 317.042969 612.640625 330.234375 607.476562 350.859375 C 602.703125 369.925781 602.125 399.074219 626.476562 429.675781 C 626.742188 430.015625 627.140625 430.191406 627.542969 430.191406 C 627.839844 430.191406 628.136719 430.097656 628.390625 429.894531 C 628.976562 429.429688 629.074219 428.570312 628.609375 427.984375 Z M 660.902344 425.726562 C 657.800781 478.273438 644.835938 538.945312 616.859375 608.292969 C 616.859375 608.292969 566.609375 627.554688 522.210938 569.136719 C 521.269531 568.121094 520.199219 566.914062 519.027344 565.5 C 513.9375 559.378906 506.84375 549.367188 499.398438 534.214844 C 486.554688 508.0625 470.25 460.972656 465.554688 385.125 C 464.4375 367.089844 464.507812 349.480469 465.738281 332.390625 C 467.132812 313.015625 470.011719 294.304688 474.394531 276.433594 C 480.941406 249.753906 490.808594 224.867188 503.714844 202.425781 L 502.234375 203.082031 C 509.714844 189.375 518.773438 176.710938 529.6875 165.550781 C 533.109375 161.585938 536.273438 158.195312 539.054688 155.386719 C 545.960938 148.417969 550.488281 144.988281 550.589844 144.910156 C 551.191406 144.457031 552.046875 144.585938 552.488281 145.1875 C 552.503906 145.203125 552.503906 145.222656 552.519531 145.238281 C 552.925781 145.832031 552.804688 146.652344 552.21875 147.089844 C 552.175781 147.121094 551.347656 147.746094 549.902344 148.972656 C 556.519531 153.660156 626.253906 205.285156 652.097656 315.253906 C 648.742188 313.769531 645.203125 312.957031 641.539062 312.957031 C 639.027344 312.957031 636.566406 313.34375 634.183594 314.0625 L 634.183594 314.054688 L 482.050781 259.382812 C 471.839844 292.296875 465.113281 334.050781 468.269531 384.957031 C 471.65625 439.632812 481.082031 479.21875 490.871094 506.746094 L 641.539062 433.855469 C 648.59375 433.855469 655.207031 430.882812 660.902344 425.726562 "/>
</g>
<path style=" stroke:none;fill-rule:nonzero;fill:rgb(49.409485%,75.289917%,64.309692%);fill-opacity:1;" d="M 267.726562 652.671875 C 267.449219 652.613281 267.171875 652.554688 266.894531 652.5 C 267.03125 651.605469 267.15625 650.71875 267.292969 649.828125 C 267.664062 649.949219 268.035156 650.070312 268.40625 650.183594 C 268.179688 651.011719 267.957031 651.84375 267.726562 652.671875 Z M 159.714844 523.777344 C 159.871094 524.417969 159.957031 525.074219 160.0625 525.734375 C 159.703125 525.78125 159.34375 525.828125 158.984375 525.878906 C 158.914062 525.214844 158.832031 524.550781 158.824219 523.886719 C 158.820312 523.851562 159.703125 523.734375 159.714844 523.777344 Z M 198.707031 572.363281 C 199.003906 572.945312 199.191406 573.585938 199.410156 574.207031 C 199.050781 574.332031 198.691406 574.460938 198.332031 574.585938 C 198.082031 573.964844 197.824219 573.34375 197.566406 572.726562 C 197.964844 572.597656 198.675781 572.304688 198.707031 572.363281 Z M 203.78125 530.554688 C 203.402344 530.535156 203.023438 530.523438 202.640625 530.507812 C 202.660156 529.675781 202.679688 528.847656 202.699219 528.015625 C 203.101562 528.027344 203.503906 528.042969 203.902344 528.058594 C 203.863281 528.894531 203.824219 529.722656 203.78125 530.554688 Z M 250.320312 630.796875 C 251.660156 630.921875 252.554688 631.003906 253.554688 631.089844 C 252.582031 633.042969 252.46875 633.039062 250.320312 630.796875 Z M 241.316406 644.242188 C 242.265625 644.457031 243.210938 644.675781 244.15625 644.890625 C 244.019531 645.316406 243.882812 645.746094 243.742188 646.175781 C 242.84375 645.902344 241.941406 645.632812 241.042969 645.363281 C 241.132812 644.988281 241.226562 644.613281 241.316406 644.242188 Z M 172.542969 519.300781 C 172.996094 520.523438 173.441406 521.746094 173.890625 522.972656 C 173.457031 523.128906 173.019531 523.285156 172.582031 523.441406 C 172.164062 522.210938 171.738281 520.976562 171.320312 519.746094 C 171.730469 519.597656 172.136719 519.449219 172.542969 519.300781 Z M 239.519531 619.953125 C 239.242188 618.886719 239.203125 617.761719 239.082031 616.652344 C 239.445312 616.550781 239.8125 616.453125 240.179688 616.351562 C 240.667969 617.394531 241.164062 618.445312 241.871094 619.953125 C 240.75 619.960938 239.5625 620.109375 239.519531 619.953125 Z M 221.625 564.808594 C 221.984375 566 222.203125 567.226562 222.476562 568.449219 C 219.90625 567.925781 220.027344 566.140625 219.886719 564.527344 C 219.871094 564.363281 220.484375 563.941406 220.691406 564.003906 C 221.058594 564.125 221.527344 564.464844 221.625 564.808594 Z M 235.132812 655.371094 C 234.925781 654.035156 234.71875 652.699219 234.441406 650.925781 C 237.914062 652.714844 237.949219 652.886719 235.132812 655.371094 Z M 231.816406 572.5 C 231.65625 571.382812 231.492188 570.269531 231.265625 568.675781 C 234.136719 569.414062 234.667969 570.546875 233.875 572.019531 C 233.65625 572.433594 232.523438 572.355469 231.816406 572.5 Z M 257.375 626.082031 C 257.34375 624.753906 257.59375 623.425781 257.753906 622.097656 C 258.386719 622.144531 259.019531 622.195312 259.648438 622.246094 C 259.605469 623.695312 259.558594 625.140625 259.507812 626.589844 C 258.765625 626.421875 257.378906 626.265625 257.375 626.082031 Z M 191.8125 521.746094 C 191.957031 521.644531 192.5 522.140625 193.132812 522.523438 C 192.515625 523.199219 192.121094 523.808594 191.570312 524.191406 C 190.558594 524.898438 189.457031 525.472656 188.390625 526.105469 C 188.140625 525.664062 187.617188 524.886719 187.6875 524.828125 C 189.011719 523.734375 190.382812 522.699219 191.8125 521.746094 Z M 204.699219 625.058594 C 205.179688 626.167969 205.40625 627.386719 205.738281 628.558594 C 205.234375 628.625 204.425781 628.917969 204.269531 628.714844 C 203.378906 627.558594 202.5625 626.320312 201.914062 625.019531 C 201.769531 624.734375 202.390625 624.066406 202.933594 623.082031 C 203.746094 623.972656 204.425781 624.425781 204.699219 625.058594 Z M 201.984375 603.566406 C 202.21875 602.117188 202.332031 600.820312 202.695312 599.601562 C 202.828125 599.167969 203.625 598.628906 204.054688 598.679688 C 204.46875 598.730469 205.042969 599.4375 205.121094 599.925781 C 205.664062 603.179688 204.910156 604.121094 201.984375 603.566406 Z M 177.402344 567.289062 C 177.816406 568.519531 178.503906 569.742188 178.578125 571 C 178.71875 573.3125 177.058594 572.578125 175.910156 572.601562 C 175.597656 572.332031 175.28125 572.0625 174.972656 571.789062 C 175.78125 570.289062 176.59375 568.789062 177.402344 567.289062 Z M 225.910156 635.609375 C 226.050781 636.863281 225.871094 638.15625 225.8125 639.917969 C 224.675781 639.691406 223.917969 639.539062 223.074219 639.367188 C 223.128906 637.988281 223.007812 636.753906 223.292969 635.632812 C 223.464844 634.941406 224.269531 634.410156 224.792969 633.8125 C 225.179688 634.40625 225.835938 634.972656 225.910156 635.609375 Z M 261.367188 506.09375 C 261.84375 509.140625 262.34375 512.023438 262.6875 514.933594 C 262.742188 515.398438 262.191406 516.097656 261.738281 516.390625 C 261.511719 516.535156 260.789062 516.046875 260.398438 515.714844 C 259.984375 515.367188 259.691406 514.863281 259.347656 514.421875 C 256.445312 510.664062 256.769531 509.109375 261.367188 506.09375 Z M 208.027344 655.320312 C 211.660156 653.457031 214.816406 651.835938 218.734375 649.820312 C 217.515625 653.832031 216.511719 657.109375 215.351562 660.917969 C 212.753906 658.933594 210.585938 657.277344 208.027344 655.320312 Z M 228.941406 508.15625 C 230.546875 512.019531 227.414062 516.820312 220.316406 519.226562 C 218.976562 516.296875 219.734375 514.058594 222.777344 512.085938 C 224.769531 510.792969 226.777344 509.527344 228.941406 508.15625 Z M 411.632812 523.195312 C 411.976562 523.371094 412.324219 523.550781 412.679688 523.722656 C 412.324219 524.503906 411.976562 525.292969 411.621094 526.074219 C 411.359375 525.972656 411.09375 525.871094 410.828125 525.777344 C 411.097656 524.914062 411.359375 524.058594 411.632812 523.195312 Z M 162.25 414.414062 C 162.59375 414.367188 162.945312 414.324219 163.289062 414.28125 C 163.402344 415.117188 163.519531 415.949219 163.636719 416.789062 C 163.265625 416.828125 162.902344 416.875 162.539062 416.917969 C 162.441406 416.085938 162.347656 415.246094 162.25 414.414062 Z M 475.753906 511.574219 C 476.121094 511.921875 476.488281 512.265625 476.992188 512.746094 C 476.507812 513.195312 476.148438 513.527344 475.789062 513.863281 C 475.492188 513.476562 474.976562 513.097656 474.957031 512.699219 C 474.941406 512.335938 475.46875 511.953125 475.753906 511.574219 Z M 199.207031 393.957031 C 199.257812 393.113281 199.308594 392.28125 199.363281 391.441406 C 199.726562 391.46875 200.09375 391.492188 200.457031 391.515625 C 200.351562 392.351562 200.242188 393.183594 200.136719 394.019531 C 199.824219 394 199.515625 393.972656 199.207031 393.957031 Z M 324.753906 384.113281 C 324.394531 384.109375 324.03125 384.097656 323.667969 384.09375 C 323.703125 383.425781 323.722656 382.761719 323.8125 382.097656 C 323.816406 382.0625 324.707031 382.089844 324.710938 382.125 C 324.769531 382.785156 324.753906 383.453125 324.753906 384.113281 Z M 296.117188 427.3125 C 296.140625 426.96875 296.820312 426.390625 297.164062 426.425781 C 297.566406 426.460938 297.921875 427.039062 298.492188 427.566406 C 297.855469 427.945312 297.386719 428.4375 297 428.382812 C 296.636719 428.328125 296.089844 427.671875 296.117188 427.3125 Z M 475.015625 198.617188 C 475.125 198.191406 475.574219 197.855469 475.882812 197.476562 C 476.261719 197.804688 476.644531 198.128906 477.246094 198.648438 C 476.605469 199.03125 476.207031 199.429688 475.769531 199.472656 C 475.527344 199.492188 474.960938 198.84375 475.015625 198.617188 Z M 354.738281 360.210938 C 354.699219 359.53125 354.660156 358.859375 354.617188 358.1875 C 354.921875 358.160156 355.226562 358.125 355.527344 358.09375 C 355.648438 358.746094 355.777344 359.394531 355.898438 360.046875 C 355.511719 360.097656 355.125 360.152344 354.738281 360.210938 Z M 345.074219 261.476562 C 344.949219 261.210938 344.816406 260.949219 344.683594 260.679688 C 345.535156 260.25 346.382812 259.816406 347.234375 259.382812 C 347.382812 259.707031 347.535156 260.027344 347.6875 260.351562 C 346.8125 260.726562 345.949219 261.105469 345.074219 261.476562 Z M 207.660156 457.433594 C 207.40625 457.460938 206.800781 456.808594 206.859375 456.617188 C 206.988281 456.199219 207.433594 455.597656 207.761719 455.59375 C 208.160156 455.582031 208.566406 456.113281 209.203125 456.578125 C 208.519531 456.984375 208.109375 457.394531 207.660156 457.433594 Z M 293.390625 409.117188 C 293.808594 409.121094 294.214844 409.621094 294.863281 410.070312 C 293.984375 410.621094 293.535156 411.117188 293.128906 411.082031 C 292.8125 411.050781 292.300781 410.335938 292.339844 409.980469 C 292.382812 409.636719 293.019531 409.117188 293.390625 409.117188 Z M 356.179688 438.050781 C 355.804688 438.125 355.433594 438.191406 355.0625 438.261719 C 354.902344 437.613281 354.75 436.960938 354.585938 436.308594 C 354.996094 436.242188 355.75 436.0625 355.769531 436.125 C 355.972656 436.742188 356.058594 437.40625 356.179688 438.050781 Z M 448.070312 476.078125 C 447.503906 476.527344 447.082031 477.109375 446.6875 477.09375 C 446.339844 477.082031 445.742188 476.414062 445.742188 476.039062 C 445.742188 475.679688 446.382812 475.050781 446.738281 475.046875 C 447.128906 475.042969 447.523438 475.621094 448.070312 476.078125 Z M 486.28125 523.363281 C 485.335938 522.988281 484.390625 522.621094 483.445312 522.246094 C 483.546875 521.96875 483.652344 521.695312 483.753906 521.417969 C 484.707031 521.769531 485.664062 522.121094 486.617188 522.472656 C 486.507812 522.769531 486.394531 523.0625 486.28125 523.363281 Z M 205.035156 350.421875 C 204.992188 350.007812 204.957031 349.597656 204.914062 349.183594 C 205.757812 349.09375 206.601562 349.007812 207.449219 348.917969 C 207.488281 349.34375 207.527344 349.773438 207.574219 350.203125 C 206.730469 350.273438 205.878906 350.34375 205.035156 350.421875 Z M 366.539062 392.914062 C 366.933594 392.988281 367.328125 393.070312 367.714844 393.144531 C 367.546875 393.957031 367.382812 394.777344 367.214844 395.589844 C 366.847656 395.515625 366.46875 395.441406 366.09375 395.367188 C 366.246094 394.550781 366.390625 393.734375 366.539062 392.914062 Z M 448.867188 399.820312 C 448.507812 399.757812 448.144531 399.691406 447.78125 399.625 C 447.929688 398.847656 448.070312 398.070312 448.273438 397.300781 C 448.273438 397.277344 449.167969 397.421875 449.167969 397.453125 C 449.105469 398.246094 448.984375 399.035156 448.867188 399.820312 Z M 428.890625 358.789062 C 428.730469 358.066406 428.574219 357.339844 428.410156 356.617188 C 428.90625 356.597656 429.402344 356.574219 429.898438 356.554688 C 429.898438 357.269531 429.898438 357.988281 429.898438 358.710938 C 429.558594 358.734375 429.222656 358.765625 428.890625 358.789062 Z M 452.320312 426.34375 C 452.410156 426.796875 452.503906 427.253906 452.597656 427.707031 C 451.648438 427.902344 450.699219 428.105469 449.746094 428.304688 C 449.65625 427.929688 449.570312 427.5625 449.488281 427.1875 C 450.429688 426.910156 451.375 426.625 452.320312 426.34375 Z M 231.539062 443.742188 C 231.414062 444.5 231.285156 445.261719 231.160156 446.019531 C 230.796875 445.960938 230.433594 445.898438 230.070312 445.839844 C 230.167969 445.101562 230.25 444.359375 230.433594 443.640625 C 230.441406 443.585938 231.15625 443.703125 231.539062 443.742188 Z M 448.800781 495.589844 C 448.921875 496.476562 449.039062 497.359375 449.15625 498.246094 C 448.78125 498.28125 448.40625 498.316406 448.027344 498.351562 C 447.964844 497.460938 447.902344 496.566406 447.835938 495.675781 C 448.160156 495.648438 448.484375 495.617188 448.800781 495.589844 Z M 319.015625 459.464844 C 319.167969 460.097656 319.140625 460.777344 319.183594 461.445312 C 318.796875 461.472656 318.417969 461.507812 318.035156 461.535156 C 317.902344 460.859375 317.765625 460.183594 317.636719 459.507812 C 318.117188 459.484375 318.992188 459.371094 319.015625 459.464844 Z M 237.695312 361.511719 C 238.726562 361.0625 239.769531 360.613281 240.800781 360.164062 C 240.945312 360.554688 241.082031 360.9375 241.226562 361.324219 C 240.15625 361.667969 239.089844 362.011719 238.03125 362.355469 C 237.917969 362.074219 237.800781 361.796875 237.695312 361.511719 Z M 397.78125 501.789062 C 399.089844 502.113281 399.960938 502.332031 400.933594 502.574219 C 399.679688 504.351562 399.566406 504.332031 397.78125 501.789062 Z M 142.035156 406.910156 C 142.113281 407.777344 142.183594 408.644531 142.253906 409.507812 C 141.832031 409.507812 141.402344 409.503906 140.984375 409.503906 C 140.984375 408.660156 140.984375 407.8125 140.984375 406.964844 C 141.332031 406.949219 141.6875 406.929688 142.035156 406.910156 Z M 437.039062 411.300781 C 436.828125 411.910156 436.335938 412.421875 435.375 413.796875 C 434.972656 412.875 434.480469 412.289062 434.613281 411.9375 C 434.84375 411.335938 435.410156 410.8125 435.957031 410.417969 C 436.0625 410.34375 437.09375 411.140625 437.039062 411.300781 Z M 386.824219 513.691406 C 387.722656 514.046875 388.628906 514.40625 389.527344 514.765625 C 389.324219 515.171875 389.128906 515.570312 388.925781 515.972656 C 388.078125 515.570312 387.226562 515.160156 386.378906 514.753906 C 386.523438 514.402344 386.671875 514.042969 386.824219 513.691406 Z M 386.832031 361.851562 C 387.808594 362.335938 388.667969 362.765625 389.949219 363.402344 C 386.960938 364.410156 386.605469 364.203125 386.832031 361.851562 Z M 323.757812 453.46875 C 323.875 453.925781 323.988281 454.386719 324.105469 454.839844 C 323.300781 455.027344 322.503906 455.214844 321.699219 455.398438 C 321.625 454.996094 321.40625 454.277344 321.496094 454.238281 C 322.21875 453.910156 323 453.707031 323.757812 453.46875 Z M 432.5 462.25 C 432.347656 461.078125 432.238281 460.199219 432.074219 458.980469 C 434.585938 460.449219 434.585938 460.449219 432.5 462.25 Z M 441.507812 460.144531 C 441.621094 461.148438 441.730469 462.152344 441.839844 463.15625 C 441.421875 463.207031 440.996094 463.257812 440.578125 463.308594 C 440.445312 462.308594 440.316406 461.304688 440.1875 460.300781 C 440.628906 460.25 441.066406 460.191406 441.507812 460.144531 Z M 484.566406 534.707031 C 485.574219 534.242188 486.574219 533.773438 487.574219 533.308594 C 487.734375 533.679688 487.898438 534.054688 488.058594 534.429688 C 487.042969 534.867188 486.03125 535.300781 485.015625 535.738281 C 484.871094 535.394531 484.714844 535.050781 484.566406 534.707031 Z M 226.019531 480.246094 C 225.652344 480.335938 225.28125 480.425781 224.90625 480.515625 C 224.625 479.375 224.339844 478.234375 224.0625 477.085938 C 224.488281 477.007812 224.917969 476.921875 225.347656 476.835938 C 225.570312 477.976562 225.796875 479.113281 226.019531 480.246094 Z M 207.046875 325.136719 C 206.980469 325.121094 207.125 324.214844 207.164062 323.71875 C 208.050781 323.90625 208.933594 324.085938 209.816406 324.261719 C 209.769531 324.679688 209.722656 325.085938 209.667969 325.5 C 208.785156 325.398438 207.90625 325.328125 207.046875 325.136719 Z M 140.761719 309.417969 C 139.765625 308.050781 139.128906 307.429688 139.230469 307.273438 C 139.578125 306.726562 140.125 306.199219 140.710938 305.984375 C 140.933594 305.898438 141.828125 306.710938 141.792969 307.054688 C 141.734375 307.746094 141.242188 308.398438 140.761719 309.417969 Z M 423.71875 424.558594 C 423.816406 425.660156 423.933594 426.761719 423.972656 427.859375 C 423.972656 427.894531 422.851562 428.011719 422.84375 427.988281 C 422.664062 426.898438 422.546875 425.796875 422.421875 424.703125 C 422.855469 424.65625 423.285156 424.605469 423.71875 424.558594 Z M 174.28125 294.082031 C 173.492188 292.8125 172.921875 291.539062 175.625 290.378906 C 175.480469 291.625 175.332031 292.867188 175.1875 294.109375 C 174.882812 294.101562 174.585938 294.089844 174.28125 294.082031 Z M 338.078125 379.675781 C 338.335938 380.957031 338.589844 382.230469 338.847656 383.507812 C 338.390625 383.597656 337.9375 383.683594 337.480469 383.777344 C 337.253906 382.492188 337.027344 381.210938 336.800781 379.925781 C 337.230469 379.847656 337.652344 379.761719 338.078125 379.675781 Z M 389.984375 485.957031 C 390.3125 487.066406 390.640625 488.179688 391.109375 489.773438 C 389.996094 489.613281 388.800781 489.574219 388.785156 489.410156 C 388.671875 488.320312 388.804688 487.199219 388.855469 486.089844 C 389.234375 486.042969 389.609375 486.003906 389.984375 485.957031 Z M 106.125 430.570312 C 106.15625 431.050781 106.1875 431.523438 106.214844 432.003906 C 105.15625 432.152344 104.09375 432.296875 103.027344 432.445312 C 103.023438 431.824219 103.015625 431.195312 103.011719 430.570312 C 104.046875 430.570312 105.085938 430.570312 106.125 430.570312 Z M 219.792969 477.835938 C 219.792969 479.9375 219.792969 481.320312 219.792969 482.703125 C 218.503906 481.273438 217.390625 479.839844 219.792969 477.835938 Z M 468.238281 434.261719 C 468.085938 435.914062 468.277344 437.726562 466.53125 438.621094 C 466.210938 438.476562 465.894531 438.328125 465.578125 438.1875 C 466.167969 436.742188 466.757812 435.304688 467.347656 433.863281 C 467.648438 433.996094 467.945312 434.132812 468.238281 434.261719 Z M 236.433594 290.980469 C 236.269531 290.945312 236.335938 289.675781 236.296875 288.972656 C 237.398438 289.074219 238.488281 289.175781 239.585938 289.277344 C 239.5625 289.878906 239.535156 290.472656 239.511719 291.070312 C 238.480469 291.070312 237.429688 291.167969 236.433594 290.980469 Z M 125.128906 415.886719 C 126.824219 416.660156 126.890625 417.3125 125.636719 420.644531 C 124.140625 419.585938 124.054688 418.800781 125.128906 415.886719 Z M 429.984375 368.007812 C 430.226562 369.375 430.316406 370.761719 430.464844 372.140625 C 429.992188 372.242188 429.523438 372.339844 429.050781 372.433594 C 428.714844 370.972656 428.328125 369.523438 428.078125 368.046875 C 428.042969 367.851562 428.667969 367.347656 428.992188 367.347656 C 429.332031 367.339844 429.925781 367.71875 429.984375 368.007812 Z M 231.515625 401.023438 C 231.414062 401.359375 230.828125 401.859375 230.605469 401.785156 C 229.230469 401.378906 227.898438 400.828125 226.554688 400.320312 C 226.675781 399.90625 226.796875 399.492188 226.914062 399.074219 C 228.320312 399.347656 229.738281 399.574219 231.121094 399.9375 C 231.351562 400 231.609375 400.714844 231.515625 401.023438 Z M 379.859375 435.90625 C 377.40625 434.996094 377.796875 433.246094 377.90625 431.632812 C 377.917969 431.46875 378.589844 431.148438 378.777344 431.242188 C 379.125 431.414062 379.535156 431.824219 379.578125 432.175781 C 379.75 433.410156 379.777344 434.65625 379.859375 435.90625 Z M 459.644531 449.105469 C 459.988281 449.570312 460.71875 450.3125 460.617188 450.449219 C 459.777344 451.582031 458.792969 452.601562 457.566406 453.964844 C 457.144531 453.050781 456.664062 452.410156 456.792969 452.25 C 457.675781 451.140625 458.679688 450.140625 459.644531 449.105469 Z M 379.003906 523.734375 C 379.003906 522.386719 379.003906 521.035156 379.003906 519.242188 C 382.152344 521.539062 382.167969 521.714844 379.003906 523.734375 Z M 300.300781 480.839844 C 298.195312 482.808594 297.203125 481.542969 296.378906 479.574219 C 299.195312 477.785156 299.378906 477.851562 300.300781 480.839844 Z M 388.511719 437.484375 C 391.230469 438.648438 391.585938 439.847656 390.574219 441.1875 C 390.296875 441.5625 389.1875 441.308594 388.460938 441.34375 C 388.476562 440.210938 388.492188 439.085938 388.511719 437.484375 Z M 397.929688 361.871094 C 396.726562 362.238281 395.523438 362.605469 394.320312 362.96875 C 394.300781 362.183594 394.042969 360.820312 394.300781 360.714844 C 395.296875 360.308594 396.453125 360.300781 397.554688 360.144531 C 397.679688 360.71875 397.800781 361.300781 397.929688 361.871094 Z M 471.980469 510.195312 C 471.960938 510.351562 470.453125 510.328125 469.640625 510.382812 C 469.820312 509.113281 470.007812 507.839844 470.195312 506.570312 C 470.761719 506.609375 471.332031 506.65625 471.898438 506.699219 C 471.964844 507.871094 472.121094 509.054688 471.980469 510.195312 Z M 146.695312 281.359375 C 145.492188 280.6875 144.476562 280.117188 143.460938 279.542969 C 144.28125 279.242188 145.140625 278.621094 145.90625 278.722656 C 146.847656 278.84375 147.710938 279.566406 148.613281 280.03125 C 148.042969 280.421875 147.476562 280.816406 146.695312 281.359375 Z M 406.46875 494.332031 C 407.082031 494.476562 407.707031 494.625 408.320312 494.769531 C 408.054688 496.195312 407.78125 497.613281 407.511719 499.039062 C 406.800781 498.761719 405.460938 498.398438 405.484375 498.210938 C 405.652344 496.898438 406.109375 495.617188 406.46875 494.332031 Z M 428.273438 343.144531 C 427.839844 343.113281 427.40625 343.082031 426.96875 343.058594 C 427.0625 341.71875 427.066406 340.371094 427.332031 339.074219 C 427.371094 338.894531 429.09375 338.65625 429.371094 338.996094 C 430.964844 340.921875 428.9375 341.835938 428.273438 343.144531 Z M 356.742188 385.046875 C 356.902344 384.972656 357.359375 385.550781 357.925781 386.023438 C 357.210938 386.59375 356.726562 387.136719 356.125 387.425781 C 355.015625 387.972656 353.839844 388.371094 352.691406 388.832031 C 352.515625 388.355469 352.117188 387.507812 352.191406 387.464844 C 353.667969 386.585938 355.183594 385.769531 356.742188 385.046875 Z M 242.535156 465.542969 C 242.148438 464.980469 242.625 463.820312 242.707031 462.941406 C 243.980469 463.359375 245.25 463.785156 246.523438 464.203125 C 246.441406 464.511719 246.359375 464.820312 246.28125 465.128906 C 245.070312 465.628906 244.015625 467.6875 242.535156 465.542969 Z M 472.738281 537.621094 C 472.039062 540.121094 471.140625 540.238281 467.597656 538.292969 C 468.300781 535.800781 468.703125 535.75 472.738281 537.621094 Z M 353.585938 489.113281 C 353.890625 490.285156 353.929688 491.523438 354.078125 492.730469 C 353.566406 492.714844 352.726562 492.886719 352.601562 492.664062 C 351.898438 491.382812 351.28125 490.03125 350.84375 488.648438 C 350.742188 488.347656 351.464844 487.78125 352.144531 486.894531 C 352.8125 487.890625 353.414062 488.453125 353.585938 489.113281 Z M 219.199219 403.078125 C 219.296875 403.238281 219.386719 403.398438 219.484375 403.550781 C 219.746094 404 219.988281 404.402344 220.125 404.628906 C 219.949219 406.015625 219.988281 406.988281 219.660156 407.816406 C 219.464844 408.3125 218.699219 408.585938 218.1875 408.953125 C 217.851562 408.246094 217.09375 407.410156 217.265625 406.859375 C 217.582031 405.832031 218.160156 404.886719 218.714844 403.933594 C 218.882812 403.652344 219.042969 403.367188 219.199219 403.078125 Z M 357.875 464.351562 C 357.902344 467.644531 357.015625 468.460938 354.214844 467.460938 C 354.667969 466.066406 354.976562 464.800781 355.523438 463.652344 C 355.71875 463.242188 356.59375 462.835938 357.015625 462.949219 C 357.410156 463.0625 357.867188 463.851562 357.875 464.351562 Z M 341.511719 350.316406 C 341.792969 350.902344 342.390625 351.539062 342.304688 352.058594 C 342.09375 353.296875 341.554688 354.476562 341.085938 355.867188 C 340.136719 355.542969 339.398438 355.296875 338.4375 354.96875 C 338.941406 353.566406 339.265625 352.320312 339.863281 351.222656 C 340.117188 350.757812 340.945312 350.609375 341.511719 350.316406 Z M 181.761719 432.132812 C 180.273438 431.863281 178.824219 431.242188 177.4375 430.585938 C 177.265625 430.503906 177.546875 428.960938 177.601562 428.960938 C 179.332031 429.003906 181.058594 429.152344 183.566406 429.347656 C 182.679688 430.769531 182.085938 432.191406 181.761719 432.132812 Z M 335.5 427.839844 C 335.71875 429.121094 336.210938 430.429688 336.089844 431.6875 C 335.878906 433.996094 334.347656 433.011719 333.207031 432.859375 C 332.9375 432.546875 332.667969 432.234375 332.40625 431.914062 C 333.4375 430.554688 334.46875 429.195312 335.5 427.839844 Z M 372.09375 500.847656 C 372.390625 501.496094 372.953125 502.15625 372.925781 502.796875 C 372.875 504.054688 372.496094 505.304688 372.167969 507.039062 C 371.078125 506.640625 370.347656 506.371094 369.539062 506.074219 C 369.8125 504.714844 369.878906 503.484375 370.339844 502.421875 C 370.617188 501.765625 371.492188 501.363281 372.09375 500.847656 Z M 385.113281 251.503906 C 384.832031 250.871094 384.3125 250.242188 384.316406 249.609375 C 384.316406 248.707031 384.511719 247.699219 384.964844 246.933594 C 385.402344 246.183594 386.261719 245.679688 386.933594 245.070312 C 387.171875 245.351562 387.410156 245.632812 387.648438 245.914062 C 387.394531 247.367188 387.285156 248.867188 386.828125 250.25 C 386.652344 250.800781 385.707031 251.09375 385.113281 251.503906 Z M 473.890625 485.753906 C 474.070312 486.921875 473.945312 488.128906 473.945312 489.730469 C 472.671875 489.617188 471.6875 489.53125 470.4375 489.425781 C 470.710938 487.917969 470.808594 486.628906 471.214844 485.441406 C 471.398438 484.917969 472.238281 484.25 472.710938 484.300781 C 473.167969 484.34375 473.804688 485.1875 473.890625 485.753906 Z M 178.710938 282.023438 C 179.140625 281.636719 179.550781 281.261719 179.953125 280.894531 C 181.289062 281.058594 182.632812 281.203125 183.976562 281.332031 C 182.566406 282.070312 181.21875 283.988281 178.710938 282.023438 Z M 418.039062 445.183594 C 417.652344 447.550781 415.332031 445.582031 413.894531 445.632812 C 413.179688 445.65625 412.460938 445.40625 411.613281 445.253906 C 411.457031 442.871094 412.835938 442.914062 414.121094 443.304688 C 415.554688 443.738281 418.492188 442.414062 418.039062 445.183594 Z M 428.574219 488.769531 C 428.15625 490.304688 427.886719 491.769531 427.34375 493.132812 C 427.152344 493.625 426.332031 493.867188 425.796875 494.226562 C 425.488281 493.660156 424.9375 493.101562 424.917969 492.53125 C 424.890625 491.628906 425.226562 490.710938 425.382812 489.796875 C 425.714844 487.832031 426.726562 487.542969 428.574219 488.769531 Z M 89.933594 373.246094 C 89.292969 372.972656 88.640625 372.695312 87.707031 372.296875 C 88.472656 370.46875 89.203125 368.730469 89.917969 367.023438 C 92.785156 367.613281 92.765625 368.863281 89.933594 373.246094 Z M 299.105469 353.78125 C 298.195312 352.695312 297.285156 351.609375 296.222656 350.335938 C 297.148438 349.289062 298.140625 346.78125 300.019531 348.046875 C 302.390625 349.636719 299.671875 351.679688 299.105469 353.78125 Z M 125.699219 321.445312 C 125.386719 319.8125 125.152344 318.128906 125.238281 316.476562 C 125.261719 315.984375 126.410156 315.546875 127.570312 314.707031 C 127.886719 317.371094 128.195312 319.113281 128.246094 320.855469 C 128.261719 321.347656 127.605469 322.082031 127.082031 322.289062 C 126.765625 322.421875 125.769531 321.828125 125.699219 321.445312 Z M 234.808594 320.632812 C 234.566406 320.046875 234.03125 319.394531 234.136719 318.878906 C 234.5 317.082031 235.09375 315.324219 235.59375 313.550781 C 235.917969 313.390625 236.234375 313.226562 236.558594 313.0625 C 236.992188 313.792969 237.863281 314.578125 237.78125 315.242188 C 237.585938 316.773438 237.019531 318.289062 236.402344 319.722656 C 236.207031 320.171875 235.359375 320.339844 234.808594 320.632812 Z M 424.59375 351.664062 C 422.613281 351.335938 421.117188 351.195312 419.6875 350.789062 C 419.183594 350.648438 418.867188 349.871094 418.460938 349.386719 C 419.011719 349.03125 419.5625 348.386719 420.117188 348.378906 C 421.601562 348.378906 423.117188 348.515625 424.542969 348.886719 C 425.109375 349.03125 425.796875 349.9375 425.816406 350.511719 C 425.828125 350.953125 424.871094 351.421875 424.59375 351.664062 Z M 372.195312 252.261719 C 371.34375 251.128906 370.652344 250.199219 369.953125 249.277344 C 373.8125 246.316406 374.449219 246.269531 376.128906 248.992188 C 374.917969 250 373.671875 251.027344 372.195312 252.261719 Z M 470.796875 211.085938 C 469.976562 210.507812 469.324219 210.046875 468.699219 209.609375 C 470.941406 204.753906 472.632812 203.601562 474.714844 205.664062 C 473.457031 207.40625 472.183594 209.171875 470.796875 211.085938 Z M 209.015625 293.160156 C 209.378906 290.8125 209.710938 288.671875 210.085938 286.28125 C 211.234375 286.484375 212.082031 286.632812 212.902344 286.777344 C 212.664062 291.917969 211.804688 293.464844 209.015625 293.160156 Z M 202.851562 492.859375 C 202.054688 493.375 201.285156 494.21875 200.4375 494.304688 C 199.667969 494.386719 198.480469 493.851562 198.066406 493.210938 C 197.347656 492.09375 197.085938 490.683594 196.339844 488.582031 C 198.402344 489.546875 199.777344 490.042969 200.988281 490.808594 C 201.742188 491.285156 202.242188 492.160156 202.851562 492.859375 Z M 449.339844 456.597656 C 449.605469 457.035156 449.503906 458.171875 449.175781 458.394531 C 448.738281 458.6875 447.714844 458.640625 447.285156 458.304688 C 445.972656 457.289062 444.828125 456.0625 443.308594 454.617188 C 444.40625 453.6875 445.152344 453.050781 446.132812 452.207031 C 447.316406 453.792969 448.433594 455.132812 449.339844 456.597656 Z M 388.929688 241.75 C 387.976562 239.488281 387.101562 237.410156 386.144531 235.140625 C 387.054688 234.710938 387.769531 234.371094 388.734375 233.910156 C 389.871094 236.175781 390.8125 238.046875 391.808594 240.027344 C 390.820312 240.617188 390.054688 241.078125 388.929688 241.75 Z M 167.648438 469.855469 C 166.109375 470.359375 165.101562 470.753906 164.066406 471.007812 C 161.742188 471.574219 159.359375 469.265625 160.015625 466.992188 C 160.132812 466.585938 161.4375 466.070312 161.839844 466.277344 C 163.703125 467.253906 165.433594 468.460938 167.648438 469.855469 Z M 148.265625 376.800781 C 148.910156 381.96875 146.417969 384 140.84375 383.148438 C 142.390625 379.933594 145.726562 379.183594 148.265625 376.800781 Z M 241.527344 420.261719 C 238.375 418.808594 236.121094 417.765625 233.527344 416.574219 C 234.144531 415.460938 234.578125 414.667969 235.179688 413.574219 C 237.214844 414.714844 239.226562 415.652344 240.976562 416.9375 C 241.503906 417.324219 241.304688 418.695312 241.527344 420.261719 Z M 142.597656 451 C 144.011719 451.828125 145.605469 452.363281 147.085938 453.019531 C 146.101562 456.289062 144.589844 456.25 138.699219 452.964844 C 139.207031 450.398438 140.328125 449.65625 142.597656 451 Z M 194.351562 432.816406 C 195.21875 432.0625 195.953125 431.417969 196.96875 430.535156 C 198.890625 432.996094 200.53125 435.097656 202.265625 437.324219 C 201.53125 437.984375 200.941406 438.53125 200.078125 439.308594 C 198.160156 437.132812 196.347656 435.074219 194.351562 432.816406 Z M 294.089844 357.976562 C 291.253906 358.820312 289.191406 359.433594 286.867188 360.128906 C 286.867188 357.640625 286.867188 355.476562 286.867188 352.5625 C 289.28125 354.375 291.34375 355.921875 294.089844 357.976562 Z M 314.652344 415.4375 C 315.109375 413.484375 317.085938 411.878906 318.429688 410.125 C 318.8125 410.316406 319.199219 410.515625 319.582031 410.707031 C 319.3125 413.507812 319.042969 416.3125 318.769531 419.109375 C 318.496094 419.257812 318.222656 419.402344 317.945312 419.554688 C 316.761719 418.160156 314.410156 416.503906 314.652344 415.4375 Z M 485.703125 545.574219 C 488.644531 547.453125 491.492188 549.277344 494.625 551.28125 C 493.929688 552.226562 493.367188 552.988281 492.632812 553.980469 C 489.722656 551.953125 487.011719 550.066406 484.0625 548.003906 C 484.691406 547.070312 485.097656 546.472656 485.703125 545.574219 Z M 425.4375 389.621094 C 425.085938 389.210938 424.871094 388.671875 424.597656 388.179688 C 422.308594 384.023438 422.871094 382.535156 427.878906 380.261719 C 427.878906 383.339844 427.929688 386.269531 427.824219 389.195312 C 427.808594 389.664062 427.15625 390.277344 426.660156 390.492188 C 426.414062 390.597656 425.773438 390.007812 425.4375 389.621094 Z M 437.585938 393.59375 C 437.15625 394.613281 435.863281 395.277344 434.960938 396.101562 C 434.289062 395.125 433.125 394.195312 433.027344 393.164062 C 432.808594 390.914062 433.125 388.605469 433.25 385.914062 C 437.152344 388.050781 438.722656 390.851562 437.585938 393.59375 Z M 408.46875 227.882812 C 406.738281 226.875 405.113281 225.929688 403.359375 224.910156 C 405.664062 223.785156 407.972656 222.667969 410.289062 221.566406 C 409.671875 223.714844 409.109375 225.652344 408.46875 227.882812 Z M 205.257812 419.472656 C 203.621094 421.925781 202.164062 424.484375 200.324219 426.730469 C 198.722656 428.691406 198.433594 428.535156 196.054688 426.609375 C 197.761719 424.195312 199.398438 421.960938 200.953125 419.660156 C 202.109375 417.9375 203.367188 417.972656 205.257812 419.472656 Z M 485.734375 197.410156 C 485.097656 195.476562 483.277344 193.273438 486.023438 190.890625 C 488.429688 194.5 490.703125 197.914062 493.207031 201.679688 C 489.019531 201.875 486.796875 200.65625 485.734375 197.410156 Z M 223.257812 354.769531 C 222.484375 354.660156 221.792969 353.953125 221.058594 353.515625 C 221.183594 353.199219 221.308594 352.882812 221.429688 352.5625 C 224.964844 351.5625 228.492188 350.558594 232.023438 349.558594 C 233.21875 353.269531 232.136719 354.953125 228.515625 355.015625 C 226.761719 355.054688 224.988281 355.011719 223.257812 354.769531 Z M 354.097656 270.867188 C 353.117188 270.609375 352.242188 270.378906 351.277344 270.121094 C 350.96875 270.039062 350.648438 269.953125 350.316406 269.867188 C 351.574219 265.808594 352.769531 261.964844 354.078125 257.75 C 355.296875 258.199219 356.121094 258.507812 357.140625 258.886719 C 356.3125 262.160156 355.507812 265.316406 354.667969 268.613281 C 354.480469 269.363281 354.289062 270.105469 354.097656 270.867188 Z M 503.523438 190.648438 C 501.621094 184.65625 502.371094 181.054688 506.292969 178.8125 C 506.363281 181.066406 506.410156 183.3125 506.4375 185.566406 C 505.488281 187.21875 504.535156 188.890625 503.523438 190.648438 Z M 315.949219 394.660156 C 313.683594 392.296875 311.796875 390.328125 309.574219 388.003906 C 313.445312 386.71875 316.8125 385.605469 320.996094 384.214844 C 319.171875 387.988281 317.679688 391.074219 315.949219 394.660156 Z M 326.390625 437.480469 C 327.386719 441.550781 323.550781 445.8125 316.167969 447.101562 C 315.296875 443.996094 316.386719 441.90625 319.699219 440.417969 C 321.867188 439.449219 324.039062 438.511719 326.390625 437.480469 Z M 446.597656 228.125 C 446.496094 228.046875 446.425781 227.976562 446.332031 227.90625 C 443.601562 225.835938 443.152344 223.71875 444.863281 221.273438 C 445.1875 220.824219 445.546875 220.386719 445.957031 220.007812 C 449.34375 216.878906 452.746094 213.765625 456.019531 210.765625 C 456.003906 210.636719 456.121094 210.980469 456.082031 211.308594 C 455.605469 215.460938 455.109375 219.636719 454.574219 224.160156 C 454.367188 224.273438 454.164062 224.402344 453.957031 224.515625 C 453.527344 224.769531 453.09375 225.015625 452.667969 225.273438 C 452.617188 225.234375 452.574219 225.199219 452.523438 225.160156 C 450.929688 223.894531 449.402344 222.6875 447.671875 221.308594 C 447.296875 223.679688 446.976562 225.699219 446.652344 227.765625 C 446.632812 227.882812 446.617188 228.003906 446.597656 228.125 Z M 669.953125 367.347656 C 669.953125 385.648438 660.460938 400.484375 648.746094 400.484375 C 637.035156 400.484375 627.542969 385.648438 627.542969 367.347656 C 627.542969 349.042969 637.035156 334.203125 648.746094 334.203125 C 660.460938 334.203125 669.953125 349.042969 669.953125 367.347656 Z M 627.542969 430.191406 C 627.140625 430.191406 626.742188 430.015625 626.476562 429.675781 C 602.125 399.074219 602.703125 369.925781 607.476562 350.859375 C 612.640625 330.234375 623.402344 317.042969 623.855469 316.492188 C 624.332031 315.910156 625.191406 315.828125 625.773438 316.308594 C 626.347656 316.785156 626.429688 317.640625 625.953125 318.21875 C 625.847656 318.355469 615.085938 331.566406 610.085938 351.628906 C 603.402344 378.457031 609.636719 404.144531 628.609375 427.984375 C 629.074219 428.570312 628.976562 429.429688 628.390625 429.894531 C 628.136719 430.097656 627.839844 430.191406 627.542969 430.191406 Z M 634.183594 314.0625 L 634.183594 314.054688 L 482.050781 259.382812 C 471.839844 292.296875 465.113281 334.050781 468.269531 384.957031 C 471.65625 439.632812 481.082031 479.21875 490.871094 506.746094 L 641.539062 433.855469 C 648.59375 433.855469 655.207031 430.882812 660.902344 425.726562 C 672.449219 415.265625 680.21875 395.761719 680.21875 373.40625 C 680.21875 345.746094 668.324219 322.441406 652.097656 315.253906 C 648.742188 313.769531 645.203125 312.957031 641.539062 312.957031 C 639.027344 312.957031 636.566406 313.34375 634.183594 314.0625 "/>
</g>
</svg>
