<?xml version="1.0" encoding="UTF-8"?>
<svg xmlns="http://www.w3.org/2000/svg" xmlns:xlink="http://www.w3.org/1999/xlink" width="705pt" height="591.000005pt" viewBox="0 0 705 591.000005" version="1.2">
<defs>
<clipPath id="clip1">
  <path d="M 0.59375 0 L 704.402344 0 L 704.402344 590 L 0.59375 590 Z M 0.59375 0 "/>
</clipPath>
<clipPath id="clip2">
  <path d="M 23.167969 13.210938 L 681.90625 13.210938 L 681.90625 577.007812 L 23.167969 577.007812 Z M 23.167969 13.210938 "/>
</clipPath>
<clipPath id="clip3">
  <path d="M 72 13.210938 L 681.90625 13.210938 L 681.90625 500.71875 L 72 500.71875 Z M 72 13.210938 "/>
</clipPath>
<clipPath id="clip4">
  <path d="M 48.195312 27.707031 L 622.550781 27.707031 L 622.550781 577.007812 L 48.195312 577.007812 Z M 48.195312 27.707031 "/>
</clipPath>
</defs>
<g id="surface1">
<g clip-path="url(#clip1)" clip-rule="nonzero">
<path style=" stroke:none;fill-rule:nonzero;fill:rgb(100%,100%,100%);fill-opacity:1;" d="M 0.59375 0 L 704.40625 0 L 704.40625 597.488281 L 0.59375 597.488281 Z M 0.59375 0 "/>
<path style=" stroke:none;fill-rule:nonzero;fill:rgb(100%,100%,100%);fill-opacity:1;" d="M 0.59375 0 L 704.40625 0 L 704.40625 590 L 0.59375 590 Z M 0.59375 0 "/>
<path style=" stroke:none;fill-rule:nonzero;fill:rgb(100%,100%,100%);fill-opacity:1;" d="M 0.59375 0 L 704.40625 0 L 704.40625 590 L 0.59375 590 Z M 0.59375 0 "/>
</g>
<g clip-path="url(#clip2)" clip-rule="nonzero">
<path style=" stroke:none;fill-rule:nonzero;fill:rgb(10.198975%,11.759949%,17.649841%);fill-opacity:1;" d="M 681.914062 258.011719 C 681.914062 381.117188 632.527344 482.984375 568.230469 500.226562 C 568.230469 500.226562 517.078125 519.851562 471.882812 460.324219 C 470.925781 459.289062 469.832031 458.058594 468.640625 456.617188 L 224.753906 386.414062 C 223.234375 415.839844 185.707031 424.050781 177.203125 425.535156 L 224.703125 557.101562 C 224.832031 557.464844 224.804688 557.859375 224.636719 558.199219 C 224.464844 558.539062 224.160156 558.792969 223.796875 558.898438 L 166.0625 576.121094 C 163.785156 576.753906 161.558594 577.074219 159.417969 577.074219 C 135.1875 577.066406 127.085938 537.871094 126.757812 536.203125 L 91.378906 394.035156 L 88.734375 394.171875 C 88.710938 394.171875 88.6875 394.171875 88.664062 394.171875 C 88.285156 394.171875 87.925781 394.019531 87.664062 393.75 C 87.46875 393.542969 68.59375 373.613281 57.101562 336.738281 C 35.863281 324.910156 21.726562 303.148438 23.285156 266.328125 C 24.726562 232.214844 40.105469 213.710938 59.582031 204.070312 C 64.046875 189.273438 69.808594 174.273438 76.867188 159.152344 C 77.101562 158.652344 77.605469 158.335938 78.160156 158.351562 L 232.796875 162.578125 C 233.3125 162.589844 233.773438 162.890625 234 163.355469 C 234.007812 163.359375 234.007812 163.367188 234.007812 163.371094 L 489.027344 38.699219 C 496.054688 31.597656 500.667969 28.101562 500.769531 28.019531 C 501.382812 27.5625 502.25 27.691406 502.703125 28.300781 C 502.71875 28.316406 502.71875 28.339844 502.734375 28.355469 C 517.113281 18.566406 532.65625 13.210938 548.882812 13.210938 C 622.355469 13.210938 681.914062 122.8125 681.914062 258.011719 "/>
</g>
<g clip-path="url(#clip3)" clip-rule="nonzero">
<path style=" stroke:none;fill-rule:nonzero;fill:rgb(10.198975%,11.759949%,17.649841%);fill-opacity:1;" d="M 401.089844 109.914062 C 401.039062 109.875 400.992188 109.839844 400.941406 109.796875 L 394.964844 112.453125 C 394.945312 112.570312 394.929688 112.695312 394.910156 112.820312 C 394.808594 112.742188 394.734375 112.667969 394.636719 112.597656 L 301.328125 154.082031 C 301.136719 154.84375 300.941406 155.597656 300.746094 156.375 C 299.75 156.113281 298.859375 155.878906 297.875 155.613281 L 221.09375 189.75 C 220.003906 192.476562 218.90625 195.429688 217.828125 198.585938 C 216.175781 206.394531 214.066406 212.960938 212.296875 217.722656 C 212.019531 218.890625 211.738281 220.078125 211.472656 221.289062 C 211.132812 222.828125 210.804688 224.421875 210.484375 226.050781 L 414.390625 219.070312 C 415.8125 199.328125 418.746094 180.257812 423.207031 162.046875 C 429.871094 134.863281 439.914062 109.5 453.050781 86.632812 L 451.542969 87.300781 L 402.402344 109.144531 C 401.964844 109.402344 401.523438 109.652344 401.089844 109.914062 Z M 76.878906 292.253906 L 161.480469 292.253906 C 161.992188 292.253906 162.480469 292.144531 162.933594 291.976562 C 163.101562 291.6875 163.265625 291.398438 163.425781 291.105469 C 163.523438 291.265625 163.617188 291.429688 163.714844 291.582031 C 164.847656 290.851562 165.601562 289.582031 165.601562 288.128906 C 165.601562 285.855469 163.753906 284.007812 161.480469 284.007812 L 76.878906 284.007812 C 74.597656 284.007812 72.757812 285.855469 72.757812 288.128906 C 72.757812 290.40625 74.597656 292.253906 76.878906 292.253906 Z M 91.214844 264.324219 C 88.632812 266.753906 85.234375 267.515625 83.660156 270.796875 C 89.335938 271.660156 91.875 269.589844 91.214844 264.324219 Z M 76.878906 271.644531 C 74.597656 271.644531 72.757812 269.796875 72.757812 267.523438 C 72.757812 265.246094 74.597656 263.40625 76.878906 263.40625 L 161.480469 263.40625 C 163.753906 263.40625 165.601562 265.246094 165.601562 267.523438 C 165.601562 269.796875 163.753906 271.644531 161.480469 271.644531 Z M 76.878906 243.5625 C 74.597656 243.5625 72.757812 245.40625 72.757812 247.6875 C 72.757812 249.960938 74.597656 251.804688 76.878906 251.804688 L 161.480469 251.804688 C 163.753906 251.804688 165.601562 249.960938 165.601562 247.6875 C 165.601562 245.40625 163.753906 243.5625 161.480469 243.5625 Z M 568.230469 500.226562 C 596.707031 429.554688 609.90625 367.730469 613.066406 314.183594 C 624.820312 303.523438 632.730469 283.648438 632.730469 260.867188 C 632.730469 232.679688 620.621094 208.929688 604.101562 201.605469 C 577.792969 89.542969 506.804688 36.9375 500.070312 32.164062 C 501.542969 30.914062 502.386719 30.273438 502.425781 30.242188 C 503.023438 29.796875 503.148438 28.960938 502.734375 28.355469 C 517.113281 18.566406 532.65625 13.210938 548.882812 13.210938 C 622.355469 13.210938 681.914062 122.8125 681.914062 258.011719 C 681.914062 381.117188 632.527344 482.984375 568.230469 500.226562 "/>
</g>
<g clip-path="url(#clip4)" clip-rule="nonzero">
<path style=" stroke:none;fill-rule:nonzero;fill:rgb(10.198975%,11.759949%,17.649841%);fill-opacity:1;" d="M 579.105469 254.691406 C 579.105469 273.34375 588.769531 288.460938 600.691406 288.460938 C 612.613281 288.460938 622.277344 273.34375 622.277344 254.691406 C 622.277344 236.039062 612.613281 220.917969 600.691406 220.917969 C 588.769531 220.917969 579.105469 236.039062 579.105469 254.691406 Z M 60.585938 338.554688 C 65.5 353.527344 71.578125 365.480469 76.90625 374.246094 C 82.816406 383.972656 87.804688 389.769531 89.246094 391.371094 L 221.515625 384.734375 C 197.363281 310.664062 201.242188 254.597656 208.808594 220.515625 C 215.628906 189.769531 226.3125 171.28125 230.1875 165.273438 L 230.117188 165.273438 L 195.792969 164.339844 L 78.992188 161.148438 C 43.554688 237.605469 48.304688 296.214844 58.558594 331.960938 C 59.207031 334.21875 59.886719 336.417969 60.585938 338.554688 Z M 221.898438 387.488281 L 94.199219 393.898438 L 129.453125 535.601562 C 129.546875 536.046875 137.449219 574.300781 159.417969 574.304688 C 161.304688 574.304688 163.28125 574.019531 165.292969 573.460938 L 221.597656 556.664062 L 174.027344 424.898438 C 173.882812 424.5 173.929688 424.0625 174.148438 423.703125 C 174.371094 423.34375 174.742188 423.105469 175.160156 423.054688 C 175.605469 422.996094 219.210938 417.136719 221.898438 387.488281 Z M 224.722656 386.410156 L 224.753906 386.414062 C 223.234375 415.839844 185.707031 424.050781 177.203125 425.535156 L 224.703125 557.101562 C 224.832031 557.464844 224.804688 557.859375 224.636719 558.199219 C 224.464844 558.539062 224.160156 558.792969 223.796875 558.898438 L 166.0625 576.121094 C 163.785156 576.753906 161.558594 577.074219 159.417969 577.074219 C 135.1875 577.066406 127.085938 537.871094 126.757812 536.203125 L 91.378906 394.035156 L 88.734375 394.171875 C 88.710938 394.171875 88.6875 394.171875 88.664062 394.171875 C 88.285156 394.171875 87.925781 394.019531 87.664062 393.75 C 87.46875 393.542969 68.59375 373.613281 57.101562 336.738281 C 56.691406 335.417969 56.289062 334.085938 55.898438 332.722656 C 49.261719 309.59375 46.925781 284.832031 48.957031 259.132812 C 50.371094 241.210938 53.933594 222.804688 59.582031 204.070312 C 64.046875 189.273438 69.808594 174.273438 76.867188 159.152344 C 77.101562 158.652344 77.605469 158.335938 78.160156 158.351562 L 232.796875 162.578125 C 233.3125 162.589844 233.773438 162.890625 234 163.355469 C 234.007812 163.359375 234.007812 163.367188 234.007812 163.371094 C 234.222656 163.828125 234.175781 164.375 233.871094 164.78125 C 233.78125 164.910156 227.613281 173.429688 221.09375 189.75 C 220.003906 192.476562 218.90625 195.429688 217.828125 198.585938 C 215.878906 204.273438 213.984375 210.648438 212.296875 217.722656 C 212.019531 218.890625 211.738281 220.078125 211.472656 221.289062 C 211.132812 222.828125 210.804688 224.421875 210.484375 226.050781 C 203.675781 260.394531 201.273438 314.714844 224.710938 385.589844 C 224.804688 385.859375 224.800781 386.140625 224.722656 386.410156 Z M 580.191406 316.484375 C 560.878906 292.191406 554.53125 266.015625 561.335938 238.675781 C 566.425781 218.230469 577.378906 204.765625 577.488281 204.628906 C 577.972656 204.042969 577.890625 203.167969 577.304688 202.683594 C 576.710938 202.195312 575.835938 202.277344 575.351562 202.867188 C 574.890625 203.429688 563.933594 216.871094 558.679688 237.890625 C 553.816406 257.320312 553.230469 287.023438 578.019531 318.207031 C 578.292969 318.554688 578.699219 318.734375 579.105469 318.734375 C 579.40625 318.734375 579.710938 318.636719 579.96875 318.429688 C 580.566406 317.957031 580.664062 317.082031 580.191406 316.484375 Z M 613.066406 314.183594 C 609.90625 367.730469 596.707031 429.554688 568.230469 500.226562 C 568.230469 500.226562 517.078125 519.851562 471.882812 460.324219 C 470.925781 459.289062 469.832031 458.058594 468.640625 456.617188 C 463.457031 450.378906 456.238281 440.179688 448.65625 424.738281 C 435.582031 398.085938 418.988281 350.097656 414.207031 272.808594 C 413.070312 254.429688 413.140625 236.488281 414.390625 219.070312 C 415.8125 199.328125 418.746094 180.257812 423.207031 162.046875 C 429.871094 134.863281 439.914062 109.5 453.050781 86.632812 L 451.542969 87.300781 C 459.160156 73.332031 468.382812 60.429688 479.492188 49.054688 C 482.976562 45.015625 486.195312 41.5625 489.027344 38.699219 C 496.054688 31.597656 500.667969 28.101562 500.769531 28.019531 C 501.382812 27.5625 502.25 27.691406 502.703125 28.300781 C 502.71875 28.316406 502.71875 28.339844 502.734375 28.355469 C 503.148438 28.960938 503.023438 29.796875 502.425781 30.242188 C 502.386719 30.273438 501.542969 30.914062 500.070312 32.164062 C 506.804688 36.9375 577.792969 89.542969 604.101562 201.605469 C 600.6875 200.09375 597.082031 199.265625 593.351562 199.265625 C 590.796875 199.265625 588.289062 199.660156 585.867188 200.390625 L 585.867188 200.386719 L 430.996094 144.671875 C 420.601562 178.214844 413.757812 220.761719 416.96875 272.636719 C 420.417969 328.351562 430.015625 368.695312 439.976562 396.742188 L 593.351562 322.464844 C 600.535156 322.464844 607.265625 319.4375 613.066406 314.183594 "/>
</g>
<path style=" stroke:none;fill-rule:nonzero;fill:rgb(100%,100%,100%);fill-opacity:1;" d="M 212.824219 545.445312 C 212.542969 545.390625 212.261719 545.328125 211.976562 545.269531 C 212.117188 544.359375 212.246094 543.460938 212.382812 542.546875 C 212.757812 542.671875 213.140625 542.796875 213.515625 542.914062 C 213.285156 543.757812 213.058594 544.601562 212.824219 545.445312 Z M 102.871094 414.097656 C 103.03125 414.753906 103.117188 415.421875 103.226562 416.097656 C 102.859375 416.140625 102.496094 416.1875 102.128906 416.238281 C 102.058594 415.566406 101.976562 414.886719 101.964844 414.210938 C 101.960938 414.175781 102.859375 414.058594 102.871094 414.097656 Z M 142.566406 463.609375 C 142.867188 464.203125 143.058594 464.855469 143.28125 465.488281 C 142.914062 465.617188 142.550781 465.746094 142.183594 465.875 C 141.925781 465.242188 141.664062 464.609375 141.402344 463.980469 C 141.808594 463.847656 142.535156 463.550781 142.566406 463.609375 Z M 147.730469 421.003906 C 147.34375 420.984375 146.960938 420.976562 146.570312 420.960938 C 146.589844 420.109375 146.609375 419.265625 146.628906 418.417969 C 147.035156 418.433594 147.449219 418.449219 147.855469 418.464844 C 147.8125 419.3125 147.773438 420.15625 147.730469 421.003906 Z M 195.105469 523.15625 C 196.46875 523.285156 197.378906 523.367188 198.398438 523.453125 C 197.410156 525.445312 197.289062 525.441406 195.105469 523.15625 Z M 185.9375 536.855469 C 186.90625 537.078125 187.867188 537.296875 188.832031 537.519531 C 188.691406 537.953125 188.554688 538.390625 188.410156 538.828125 C 187.492188 538.550781 186.578125 538.277344 185.660156 538 C 185.753906 537.617188 185.847656 537.238281 185.9375 536.855469 Z M 115.929688 409.539062 C 116.394531 410.785156 116.847656 412.03125 117.304688 413.28125 C 116.863281 413.441406 116.414062 413.597656 115.972656 413.757812 C 115.542969 412.503906 115.113281 411.246094 114.683594 409.992188 C 115.101562 409.84375 115.519531 409.6875 115.929688 409.539062 Z M 184.113281 512.105469 C 183.828125 511.019531 183.789062 509.871094 183.664062 508.742188 C 184.035156 508.640625 184.410156 508.539062 184.78125 508.433594 C 185.28125 509.5 185.785156 510.570312 186.503906 512.105469 C 185.363281 512.113281 184.152344 512.265625 184.113281 512.105469 Z M 165.894531 455.910156 C 166.261719 457.125 166.484375 458.375 166.761719 459.621094 C 164.148438 459.085938 164.269531 457.269531 164.125 455.625 C 164.109375 455.457031 164.734375 455.027344 164.945312 455.09375 C 165.320312 455.214844 165.792969 455.5625 165.894531 455.910156 Z M 179.644531 548.199219 C 179.433594 546.835938 179.222656 545.476562 178.941406 543.671875 C 182.476562 545.492188 182.511719 545.667969 179.644531 548.199219 Z M 176.269531 463.75 C 176.105469 462.613281 175.941406 461.476562 175.710938 459.855469 C 178.632812 460.605469 179.171875 461.757812 178.363281 463.261719 C 178.144531 463.683594 176.992188 463.601562 176.269531 463.75 Z M 202.289062 518.351562 C 202.257812 517 202.507812 515.644531 202.671875 514.292969 C 203.316406 514.339844 203.960938 514.390625 204.601562 514.441406 C 204.554688 515.917969 204.511719 517.390625 204.457031 518.867188 C 203.703125 518.699219 202.292969 518.539062 202.289062 518.351562 Z M 135.546875 412.03125 C 135.695312 411.925781 136.246094 412.429688 136.890625 412.824219 C 136.261719 413.511719 135.859375 414.128906 135.300781 414.519531 C 134.269531 415.242188 133.148438 415.828125 132.0625 416.472656 C 131.808594 416.023438 131.273438 415.230469 131.347656 415.167969 C 132.695312 414.058594 134.089844 413.003906 135.546875 412.03125 Z M 148.664062 517.308594 C 149.152344 518.441406 149.382812 519.679688 149.722656 520.875 C 149.207031 520.941406 148.386719 521.242188 148.226562 521.035156 C 147.320312 519.855469 146.492188 518.59375 145.828125 517.265625 C 145.683594 516.980469 146.316406 516.300781 146.867188 515.296875 C 147.695312 516.203125 148.386719 516.664062 148.664062 517.308594 Z M 145.898438 495.410156 C 146.140625 493.929688 146.253906 492.609375 146.625 491.367188 C 146.757812 490.925781 147.570312 490.375 148.007812 490.425781 C 148.429688 490.476562 149.011719 491.199219 149.09375 491.699219 C 149.644531 495.011719 148.878906 495.972656 145.898438 495.410156 Z M 120.875 458.4375 C 121.296875 459.695312 121.996094 460.941406 122.074219 462.222656 C 122.21875 464.578125 120.527344 463.828125 119.359375 463.851562 C 119.039062 463.582031 118.71875 463.300781 118.40625 463.023438 C 119.230469 461.496094 120.050781 459.96875 120.875 458.4375 Z M 170.253906 528.058594 C 170.398438 529.335938 170.21875 530.652344 170.15625 532.449219 C 169 532.21875 168.226562 532.0625 167.367188 531.890625 C 167.425781 530.484375 167.300781 529.226562 167.59375 528.085938 C 167.769531 527.378906 168.585938 526.839844 169.117188 526.226562 C 169.511719 526.835938 170.183594 527.410156 170.253906 528.058594 Z M 206.351562 396.078125 C 206.835938 399.183594 207.34375 402.121094 207.695312 405.085938 C 207.753906 405.558594 207.191406 406.277344 206.726562 406.574219 C 206.496094 406.71875 205.761719 406.222656 205.363281 405.882812 C 204.941406 405.53125 204.644531 405.015625 204.292969 404.566406 C 201.339844 400.738281 201.667969 399.152344 206.351562 396.078125 Z M 152.054688 548.148438 C 155.75 546.25 158.964844 544.597656 162.953125 542.542969 C 161.710938 546.628906 160.6875 549.96875 159.511719 553.851562 C 156.863281 551.828125 154.65625 550.140625 152.054688 548.148438 Z M 173.34375 398.179688 C 174.976562 402.117188 171.789062 407.011719 164.5625 409.460938 C 163.199219 406.476562 163.972656 404.195312 167.070312 402.183594 C 169.097656 400.867188 171.140625 399.578125 173.34375 398.179688 Z M 359.316406 413.507812 C 359.667969 413.6875 360.023438 413.867188 360.382812 414.042969 C 360.023438 414.839844 359.667969 415.644531 359.304688 416.441406 C 359.039062 416.335938 358.765625 416.234375 358.5 416.136719 C 358.769531 415.257812 359.039062 414.386719 359.316406 413.507812 Z M 105.453125 302.65625 C 105.804688 302.609375 106.160156 302.5625 106.507812 302.519531 C 106.625 303.371094 106.746094 304.21875 106.863281 305.074219 C 106.488281 305.113281 106.117188 305.160156 105.746094 305.207031 C 105.648438 304.359375 105.550781 303.503906 105.453125 302.65625 Z M 424.589844 401.664062 C 424.960938 402.019531 425.335938 402.371094 425.851562 402.859375 C 425.359375 403.316406 424.992188 403.65625 424.628906 403.996094 C 424.324219 403.605469 423.796875 403.21875 423.777344 402.8125 C 423.761719 402.441406 424.296875 402.050781 424.589844 401.664062 Z M 143.074219 281.808594 C 143.125 280.949219 143.175781 280.101562 143.234375 279.246094 C 143.605469 279.273438 143.976562 279.296875 144.34375 279.320312 C 144.238281 280.171875 144.128906 281.023438 144.019531 281.871094 C 143.703125 281.851562 143.386719 281.824219 143.074219 281.808594 Z M 270.875 271.777344 C 270.511719 271.773438 270.140625 271.761719 269.769531 271.757812 C 269.804688 271.078125 269.824219 270.398438 269.917969 269.726562 C 269.921875 269.6875 270.828125 269.714844 270.835938 269.75 C 270.890625 270.425781 270.875 271.105469 270.875 271.777344 Z M 241.726562 315.800781 C 241.75 315.449219 242.441406 314.859375 242.789062 314.894531 C 243.203125 314.929688 243.5625 315.523438 244.144531 316.058594 C 243.496094 316.441406 243.015625 316.945312 242.625 316.890625 C 242.253906 316.832031 241.699219 316.164062 241.726562 315.800781 Z M 423.839844 82.75 C 423.949219 82.320312 424.40625 81.972656 424.71875 81.585938 C 425.105469 81.921875 425.496094 82.25 426.109375 82.78125 C 425.457031 83.171875 425.050781 83.578125 424.605469 83.621094 C 424.359375 83.640625 423.78125 82.984375 423.839844 82.75 Z M 301.402344 247.417969 C 301.359375 246.730469 301.316406 246.042969 301.277344 245.359375 C 301.585938 245.328125 301.894531 245.292969 302.203125 245.261719 C 302.328125 245.925781 302.457031 246.589844 302.578125 247.253906 C 302.1875 247.304688 301.792969 247.363281 301.402344 247.417969 Z M 291.5625 146.808594 C 291.433594 146.535156 291.300781 146.269531 291.164062 145.996094 C 292.03125 145.558594 292.894531 145.113281 293.757812 144.671875 C 293.914062 145 294.066406 145.332031 294.222656 145.660156 C 293.332031 146.042969 292.453125 146.425781 291.5625 146.808594 Z M 151.679688 346.496094 C 151.421875 346.519531 150.804688 345.855469 150.863281 345.660156 C 150.992188 345.234375 151.445312 344.621094 151.78125 344.617188 C 152.1875 344.605469 152.597656 345.148438 153.246094 345.621094 C 152.554688 346.035156 152.136719 346.453125 151.679688 346.496094 Z M 238.949219 297.253906 C 239.371094 297.261719 239.789062 297.769531 240.449219 298.226562 C 239.554688 298.789062 239.09375 299.292969 238.683594 299.257812 C 238.359375 299.226562 237.839844 298.5 237.878906 298.136719 C 237.921875 297.785156 238.570312 297.253906 238.949219 297.253906 Z M 302.867188 326.742188 C 302.484375 326.820312 302.105469 326.886719 301.730469 326.957031 C 301.566406 326.292969 301.410156 325.628906 301.246094 324.964844 C 301.664062 324.898438 302.429688 324.714844 302.449219 324.78125 C 302.65625 325.410156 302.742188 326.082031 302.867188 326.742188 Z M 396.40625 365.492188 C 395.832031 365.949219 395.402344 366.542969 395.003906 366.527344 C 394.648438 366.515625 394.039062 365.835938 394.039062 365.449219 C 394.039062 365.085938 394.6875 364.449219 395.054688 364.441406 C 395.449219 364.4375 395.851562 365.027344 396.40625 365.492188 Z M 435.304688 413.675781 C 434.34375 413.296875 433.378906 412.921875 432.417969 412.539062 C 432.519531 412.257812 432.628906 411.976562 432.730469 411.695312 C 433.703125 412.054688 434.675781 412.410156 435.648438 412.769531 C 435.535156 413.074219 435.421875 413.375 435.304688 413.675781 Z M 149.007812 237.445312 C 148.960938 237.023438 148.925781 236.605469 148.882812 236.183594 C 149.742188 236.089844 150.601562 236.003906 151.460938 235.910156 C 151.503906 236.347656 151.542969 236.785156 151.589844 237.222656 C 150.730469 237.292969 149.867188 237.367188 149.007812 237.445312 Z M 313.410156 280.746094 C 313.8125 280.820312 314.214844 280.902344 314.609375 280.980469 C 314.441406 281.808594 314.269531 282.644531 314.101562 283.472656 C 313.726562 283.394531 313.339844 283.324219 312.957031 283.246094 C 313.113281 282.410156 313.261719 281.582031 313.410156 280.746094 Z M 397.21875 287.785156 C 396.855469 287.71875 396.484375 287.652344 396.113281 287.585938 C 396.261719 286.792969 396.40625 286 396.613281 285.21875 C 396.613281 285.191406 397.523438 285.339844 397.523438 285.371094 C 397.460938 286.179688 397.339844 286.980469 397.21875 287.785156 Z M 376.882812 245.972656 C 376.71875 245.238281 376.558594 244.496094 376.394531 243.757812 C 376.898438 243.738281 377.402344 243.714844 377.910156 243.691406 C 377.910156 244.421875 377.910156 245.152344 377.910156 245.890625 C 377.5625 245.914062 377.222656 245.945312 376.882812 245.972656 Z M 400.734375 314.8125 C 400.828125 315.273438 400.921875 315.738281 401.019531 316.199219 C 400.050781 316.402344 399.082031 316.609375 398.117188 316.808594 C 398.023438 316.425781 397.9375 316.050781 397.851562 315.671875 C 398.8125 315.386719 399.773438 315.097656 400.734375 314.8125 Z M 175.988281 332.542969 C 175.859375 333.3125 175.730469 334.089844 175.601562 334.863281 C 175.230469 334.800781 174.859375 334.738281 174.488281 334.679688 C 174.59375 333.925781 174.675781 333.171875 174.859375 332.4375 C 174.871094 332.382812 175.597656 332.5 175.988281 332.542969 Z M 397.152344 385.375 C 397.277344 386.28125 397.394531 387.179688 397.515625 388.082031 C 397.132812 388.117188 396.753906 388.152344 396.367188 388.191406 C 396.300781 387.285156 396.238281 386.371094 396.171875 385.460938 C 396.5 385.4375 396.828125 385.40625 397.152344 385.375 Z M 265.035156 348.5625 C 265.191406 349.207031 265.164062 349.902344 265.203125 350.582031 C 264.8125 350.609375 264.429688 350.644531 264.035156 350.675781 C 263.902344 349.984375 263.765625 349.296875 263.628906 348.605469 C 264.121094 348.585938 265.007812 348.464844 265.035156 348.5625 Z M 182.253906 248.746094 C 183.304688 248.289062 184.363281 247.832031 185.414062 247.371094 C 185.5625 247.769531 185.703125 248.160156 185.847656 248.554688 C 184.761719 248.90625 183.675781 249.257812 182.59375 249.605469 C 182.480469 249.316406 182.363281 249.035156 182.253906 248.746094 Z M 345.21875 391.695312 C 346.550781 392.023438 347.433594 392.246094 348.421875 392.492188 C 347.148438 394.304688 347.035156 394.285156 345.21875 391.695312 Z M 84.875 295.007812 C 84.953125 295.890625 85.023438 296.777344 85.097656 297.65625 C 84.667969 297.65625 84.230469 297.652344 83.804688 297.652344 C 83.804688 296.792969 83.804688 295.925781 83.804688 295.0625 C 84.160156 295.046875 84.519531 295.027344 84.875 295.007812 Z M 385.179688 299.484375 C 384.964844 300.101562 384.464844 300.625 383.488281 302.027344 C 383.074219 301.085938 382.574219 300.488281 382.710938 300.132812 C 382.945312 299.519531 383.523438 298.984375 384.078125 298.582031 C 384.1875 298.507812 385.234375 299.320312 385.179688 299.484375 Z M 334.0625 403.820312 C 334.976562 404.1875 335.898438 404.550781 336.8125 404.917969 C 336.609375 405.328125 336.40625 405.734375 336.203125 406.148438 C 335.335938 405.734375 334.472656 405.316406 333.609375 404.90625 C 333.757812 404.546875 333.90625 404.179688 334.0625 403.820312 Z M 334.070312 249.089844 C 335.0625 249.585938 335.9375 250.023438 337.242188 250.671875 C 334.199219 251.699219 333.839844 251.488281 334.070312 249.089844 Z M 269.863281 342.453125 C 269.980469 342.917969 270.097656 343.386719 270.21875 343.851562 C 269.398438 344.039062 268.585938 344.230469 267.765625 344.421875 C 267.691406 344.007812 267.46875 343.277344 267.5625 343.238281 C 268.296875 342.902344 269.089844 342.695312 269.863281 342.453125 Z M 380.558594 351.398438 C 380.402344 350.207031 380.289062 349.308594 380.125 348.070312 C 382.683594 349.566406 382.683594 349.566406 380.558594 351.398438 Z M 389.726562 349.253906 C 389.839844 350.277344 389.953125 351.300781 390.066406 352.328125 C 389.640625 352.378906 389.207031 352.429688 388.78125 352.480469 C 388.648438 351.460938 388.515625 350.4375 388.386719 349.414062 C 388.832031 349.363281 389.28125 349.304688 389.726562 349.253906 Z M 433.558594 425.238281 C 434.585938 424.761719 435.601562 424.285156 436.621094 423.8125 C 436.785156 424.191406 436.953125 424.574219 437.117188 424.953125 C 436.082031 425.402344 435.050781 425.84375 434.019531 426.285156 C 433.867188 425.9375 433.710938 425.585938 433.558594 425.238281 Z M 170.367188 369.738281 C 169.992188 369.832031 169.617188 369.921875 169.234375 370.015625 C 168.949219 368.851562 168.660156 367.691406 168.375 366.519531 C 168.808594 366.4375 169.246094 366.351562 169.683594 366.265625 C 169.910156 367.425781 170.140625 368.585938 170.367188 369.738281 Z M 151.054688 211.679688 C 150.988281 211.664062 151.132812 210.738281 151.175781 210.234375 C 152.074219 210.421875 152.976562 210.609375 153.875 210.789062 C 153.824219 211.210938 153.777344 211.628906 153.722656 212.050781 C 152.824219 211.945312 151.929688 211.875 151.054688 211.679688 Z M 83.578125 195.664062 C 82.566406 194.265625 81.917969 193.632812 82.019531 193.476562 C 82.375 192.917969 82.929688 192.378906 83.527344 192.164062 C 83.753906 192.074219 84.664062 192.902344 84.628906 193.253906 C 84.566406 193.957031 84.066406 194.621094 83.578125 195.664062 Z M 371.621094 312.996094 C 371.71875 314.117188 371.835938 315.238281 371.878906 316.355469 C 371.878906 316.390625 370.734375 316.507812 370.730469 316.488281 C 370.542969 315.378906 370.425781 314.253906 370.296875 313.136719 C 370.742188 313.09375 371.175781 313.039062 371.621094 312.996094 Z M 117.699219 180.03125 C 116.898438 178.738281 116.316406 177.441406 119.070312 176.257812 C 118.921875 177.53125 118.769531 178.796875 118.621094 180.0625 C 118.3125 180.050781 118.007812 180.042969 117.699219 180.03125 Z M 284.441406 267.253906 C 284.703125 268.5625 284.960938 269.859375 285.222656 271.160156 C 284.757812 271.253906 284.296875 271.339844 283.832031 271.433594 C 283.601562 270.125 283.371094 268.820312 283.136719 267.511719 C 283.574219 267.429688 284.007812 267.34375 284.441406 267.253906 Z M 337.277344 375.558594 C 337.613281 376.691406 337.945312 377.824219 338.425781 379.449219 C 337.292969 379.285156 336.074219 379.246094 336.058594 379.078125 C 335.945312 377.96875 336.078125 376.824219 336.128906 375.691406 C 336.515625 375.648438 336.894531 375.605469 337.277344 375.558594 Z M 48.320312 319.121094 C 48.351562 319.609375 48.382812 320.09375 48.414062 320.582031 C 47.332031 320.730469 46.25 320.878906 45.164062 321.027344 C 45.160156 320.394531 45.15625 319.757812 45.148438 319.121094 C 46.203125 319.121094 47.257812 319.121094 48.320312 319.121094 Z M 164.027344 367.28125 C 164.027344 369.425781 164.027344 370.835938 164.027344 372.246094 C 162.714844 370.789062 161.582031 369.328125 164.027344 367.28125 Z M 416.9375 322.882812 C 416.785156 324.566406 416.980469 326.414062 415.199219 327.324219 C 414.875 327.175781 414.550781 327.023438 414.234375 326.878906 C 414.828125 325.410156 415.429688 323.941406 416.035156 322.476562 C 416.335938 322.609375 416.640625 322.746094 416.9375 322.882812 Z M 180.96875 176.871094 C 180.804688 176.835938 180.871094 175.542969 180.828125 174.828125 C 181.949219 174.929688 183.0625 175.035156 184.179688 175.136719 C 184.152344 175.75 184.128906 176.355469 184.101562 176.964844 C 183.050781 176.964844 181.980469 177.0625 180.96875 176.871094 Z M 67.664062 304.15625 C 69.390625 304.945312 69.457031 305.609375 68.183594 309.003906 C 66.660156 307.925781 66.570312 307.128906 67.664062 304.15625 Z M 377.996094 255.367188 C 378.242188 256.761719 378.335938 258.171875 378.484375 259.574219 C 378.007812 259.679688 377.527344 259.78125 377.050781 259.875 C 376.703125 258.386719 376.3125 256.910156 376.054688 255.40625 C 376.019531 255.207031 376.65625 254.691406 376.988281 254.691406 C 377.332031 254.6875 377.9375 255.070312 377.996094 255.367188 Z M 175.960938 289.011719 C 175.859375 289.351562 175.261719 289.859375 175.035156 289.789062 C 173.636719 289.371094 172.28125 288.808594 170.914062 288.292969 C 171.035156 287.871094 171.160156 287.449219 171.277344 287.023438 C 172.710938 287.300781 174.15625 287.53125 175.558594 287.902344 C 175.796875 287.964844 176.058594 288.695312 175.960938 289.011719 Z M 326.96875 324.554688 C 324.472656 323.628906 324.871094 321.847656 324.984375 320.199219 C 324.992188 320.035156 325.679688 319.707031 325.867188 319.804688 C 326.222656 319.980469 326.640625 320.394531 326.6875 320.757812 C 326.863281 322.011719 326.886719 323.28125 326.96875 324.554688 Z M 408.191406 338.007812 C 408.542969 338.480469 409.28125 339.238281 409.179688 339.378906 C 408.324219 340.53125 407.320312 341.570312 406.078125 342.960938 C 405.644531 342.027344 405.15625 341.375 405.289062 341.210938 C 406.183594 340.082031 407.207031 339.0625 408.191406 338.007812 Z M 326.101562 414.058594 C 326.101562 412.683594 326.101562 411.304688 326.101562 409.476562 C 329.304688 411.820312 329.320312 412 326.101562 414.058594 Z M 245.984375 370.34375 C 243.839844 372.351562 242.832031 371.0625 241.992188 369.054688 C 244.859375 367.230469 245.042969 367.296875 245.984375 370.34375 Z M 335.78125 326.164062 C 338.546875 327.347656 338.910156 328.574219 337.878906 329.9375 C 337.597656 330.320312 336.46875 330.0625 335.726562 330.097656 C 335.742188 328.945312 335.757812 327.796875 335.78125 326.164062 Z M 345.367188 249.113281 C 344.140625 249.488281 342.917969 249.859375 341.691406 250.230469 C 341.671875 249.429688 341.410156 248.042969 341.671875 247.933594 C 342.683594 247.523438 343.863281 247.511719 344.984375 247.351562 C 345.113281 247.9375 345.238281 248.53125 345.367188 249.113281 Z M 420.746094 400.257812 C 420.726562 400.417969 419.191406 400.394531 418.363281 400.449219 C 418.550781 399.15625 418.742188 397.859375 418.929688 396.5625 C 419.507812 396.605469 420.089844 396.652344 420.664062 396.699219 C 420.730469 397.890625 420.890625 399.097656 420.746094 400.257812 Z M 89.621094 167.066406 C 88.394531 166.382812 87.359375 165.800781 86.328125 165.21875 C 87.160156 164.910156 88.035156 164.277344 88.816406 164.378906 C 89.773438 164.503906 90.652344 165.238281 91.570312 165.710938 C 90.988281 166.113281 90.414062 166.515625 89.621094 167.066406 Z M 354.058594 384.09375 C 354.683594 384.242188 355.316406 384.390625 355.945312 384.539062 C 355.671875 385.992188 355.394531 387.4375 355.121094 388.890625 C 354.398438 388.605469 353.035156 388.234375 353.058594 388.046875 C 353.230469 386.707031 353.691406 385.40625 354.058594 384.09375 Z M 376.257812 230.027344 C 375.8125 229.996094 375.371094 229.964844 374.929688 229.941406 C 375.023438 228.574219 375.027344 227.203125 375.300781 225.878906 C 375.335938 225.699219 377.089844 225.457031 377.375 225.800781 C 378.992188 227.761719 376.929688 228.695312 376.257812 230.027344 Z M 303.4375 272.730469 C 303.601562 272.652344 304.066406 273.242188 304.640625 273.722656 C 303.917969 274.304688 303.421875 274.855469 302.808594 275.15625 C 301.683594 275.710938 300.484375 276.117188 299.316406 276.585938 C 299.136719 276.101562 298.730469 275.238281 298.808594 275.191406 C 300.308594 274.296875 301.851562 273.46875 303.4375 272.730469 Z M 187.179688 354.753906 C 186.789062 354.183594 187.273438 353 187.355469 352.105469 C 188.652344 352.53125 189.941406 352.964844 191.238281 353.390625 C 191.15625 353.707031 191.074219 354.019531 190.992188 354.332031 C 189.761719 354.84375 188.6875 356.941406 187.179688 354.753906 Z M 421.519531 428.207031 C 420.808594 430.753906 419.894531 430.871094 416.285156 428.890625 C 417 426.351562 417.414062 426.300781 421.519531 428.207031 Z M 300.226562 378.777344 C 300.535156 379.96875 300.578125 381.230469 300.726562 382.460938 C 300.207031 382.445312 299.351562 382.621094 299.222656 382.394531 C 298.507812 381.085938 297.878906 379.710938 297.433594 378.300781 C 297.332031 377.992188 298.066406 377.417969 298.761719 376.515625 C 299.441406 377.53125 300.050781 378.101562 300.226562 378.777344 Z M 163.425781 291.105469 C 163.523438 291.265625 163.617188 291.429688 163.714844 291.582031 C 163.980469 292.042969 164.230469 292.453125 164.367188 292.683594 C 164.1875 294.09375 164.230469 295.089844 163.894531 295.933594 C 163.695312 296.4375 162.917969 296.714844 162.398438 297.089844 C 162.050781 296.371094 161.28125 295.515625 161.457031 294.953125 C 161.78125 293.910156 162.367188 292.949219 162.933594 291.976562 C 163.101562 291.6875 163.265625 291.398438 163.425781 291.105469 Z M 304.589844 353.542969 C 304.621094 356.898438 303.714844 357.730469 300.867188 356.710938 C 301.328125 355.292969 301.640625 354 302.199219 352.832031 C 302.398438 352.414062 303.289062 351.996094 303.714844 352.117188 C 304.117188 352.230469 304.585938 353.03125 304.589844 353.542969 Z M 287.933594 237.335938 C 288.222656 237.933594 288.828125 238.582031 288.742188 239.113281 C 288.527344 240.371094 287.980469 241.578125 287.5 242.992188 C 286.535156 242.664062 285.78125 242.410156 284.804688 242.078125 C 285.320312 240.652344 285.648438 239.378906 286.257812 238.261719 C 286.515625 237.789062 287.359375 237.632812 287.933594 237.335938 Z M 125.316406 320.710938 C 123.796875 320.4375 122.328125 319.804688 120.910156 319.132812 C 120.738281 319.050781 121.023438 317.476562 121.082031 317.476562 C 122.839844 317.523438 124.601562 317.671875 127.152344 317.875 C 126.246094 319.320312 125.644531 320.769531 125.316406 320.710938 Z M 281.816406 316.335938 C 282.035156 317.640625 282.542969 318.976562 282.417969 320.257812 C 282.203125 322.609375 280.640625 321.605469 279.480469 321.449219 C 279.207031 321.132812 278.933594 320.8125 278.667969 320.488281 C 279.714844 319.105469 280.765625 317.71875 281.816406 316.335938 Z M 319.066406 390.730469 C 319.371094 391.394531 319.941406 392.066406 319.914062 392.71875 C 319.863281 394 319.476562 395.277344 319.144531 397.042969 C 318.03125 396.636719 317.289062 396.363281 316.46875 396.058594 C 316.746094 394.675781 316.8125 393.417969 317.28125 392.339844 C 317.5625 391.667969 318.453125 391.257812 319.066406 390.730469 Z M 332.320312 136.644531 C 332.035156 136 331.503906 135.355469 331.507812 134.714844 C 331.507812 133.792969 331.710938 132.769531 332.167969 131.984375 C 332.613281 131.222656 333.488281 130.710938 334.175781 130.085938 C 334.417969 130.375 334.65625 130.664062 334.898438 130.945312 C 334.640625 132.429688 334.527344 133.957031 334.066406 135.367188 C 333.886719 135.929688 332.921875 136.226562 332.320312 136.644531 Z M 422.691406 375.351562 C 422.878906 376.542969 422.75 377.773438 422.75 379.402344 C 421.453125 379.289062 420.449219 379.203125 419.175781 379.09375 C 419.457031 377.554688 419.554688 376.242188 419.96875 375.035156 C 420.15625 374.5 421.007812 373.820312 421.492188 373.871094 C 421.957031 373.917969 422.605469 374.777344 422.691406 375.351562 Z M 122.207031 167.746094 C 122.644531 167.347656 123.0625 166.96875 123.472656 166.59375 C 124.832031 166.761719 126.203125 166.90625 127.570312 167.039062 C 126.132812 167.792969 124.761719 169.746094 122.207031 167.746094 Z M 365.835938 334.007812 C 365.445312 336.421875 363.082031 334.414062 361.617188 334.46875 C 360.890625 334.492188 360.160156 334.234375 359.296875 334.082031 C 359.136719 331.652344 360.542969 331.699219 361.847656 332.09375 C 363.308594 332.535156 366.300781 331.1875 365.835938 334.007812 Z M 376.558594 378.425781 C 376.136719 379.992188 375.859375 381.484375 375.308594 382.871094 C 375.113281 383.371094 374.28125 383.621094 373.734375 383.984375 C 373.421875 383.410156 372.859375 382.84375 372.839844 382.261719 C 372.8125 381.339844 373.152344 380.402344 373.3125 379.472656 C 373.652344 377.46875 374.683594 377.175781 376.558594 378.425781 Z M 31.835938 260.703125 C 31.183594 260.425781 30.519531 260.140625 29.566406 259.734375 C 30.351562 257.871094 31.089844 256.101562 31.820312 254.363281 C 34.738281 254.964844 34.71875 256.234375 31.835938 260.703125 Z M 244.765625 240.867188 C 243.839844 239.761719 242.914062 238.652344 241.832031 237.355469 C 242.773438 236.292969 243.78125 233.734375 245.695312 235.023438 C 248.109375 236.644531 245.34375 238.726562 244.765625 240.867188 Z M 68.246094 207.917969 C 67.925781 206.253906 67.6875 204.535156 67.777344 202.851562 C 67.800781 202.351562 68.96875 201.90625 70.148438 201.050781 C 70.472656 203.761719 70.785156 205.539062 70.835938 207.316406 C 70.851562 207.820312 70.183594 208.566406 69.652344 208.777344 C 69.328125 208.910156 68.316406 208.308594 68.246094 207.917969 Z M 179.316406 207.089844 C 179.070312 206.492188 178.523438 205.828125 178.632812 205.300781 C 179.003906 203.46875 179.605469 201.679688 180.113281 199.871094 C 180.441406 199.707031 180.765625 199.542969 181.097656 199.371094 C 181.539062 200.121094 182.425781 200.917969 182.34375 201.597656 C 182.140625 203.15625 181.566406 204.699219 180.9375 206.160156 C 180.738281 206.621094 179.878906 206.789062 179.316406 207.089844 Z M 372.511719 238.710938 C 370.492188 238.375 368.96875 238.230469 367.515625 237.820312 C 367.003906 237.675781 366.679688 236.882812 366.269531 236.390625 C 366.828125 236.027344 367.390625 235.371094 367.953125 235.363281 C 369.464844 235.363281 371.007812 235.503906 372.457031 235.878906 C 373.035156 236.027344 373.734375 236.949219 373.753906 237.535156 C 373.765625 237.984375 372.792969 238.464844 372.511719 238.710938 Z M 319.167969 137.414062 C 318.304688 136.261719 317.597656 135.316406 316.890625 134.375 C 320.816406 131.359375 321.464844 131.3125 323.171875 134.085938 C 321.941406 135.109375 320.671875 136.160156 319.167969 137.414062 Z M 419.542969 95.457031 C 418.710938 94.867188 418.046875 94.398438 417.40625 93.949219 C 419.691406 89.003906 421.410156 87.832031 423.53125 89.929688 C 422.25 91.707031 420.953125 93.507812 419.542969 95.457031 Z M 153.058594 179.09375 C 153.429688 176.703125 153.765625 174.519531 154.148438 172.085938 C 155.316406 172.289062 156.179688 172.441406 157.015625 172.589844 C 156.773438 177.828125 155.898438 179.402344 153.058594 179.09375 Z M 146.785156 382.59375 C 145.972656 383.121094 145.1875 383.980469 144.324219 384.066406 C 143.542969 384.148438 142.332031 383.605469 141.910156 382.949219 C 141.179688 381.8125 140.914062 380.375 140.15625 378.234375 C 142.257812 379.21875 143.65625 379.722656 144.886719 380.503906 C 145.652344 380.988281 146.160156 381.878906 146.785156 382.59375 Z M 397.699219 345.640625 C 397.972656 346.089844 397.867188 347.246094 397.535156 347.472656 C 397.085938 347.773438 396.046875 347.726562 395.609375 347.378906 C 394.273438 346.347656 393.109375 345.09375 391.558594 343.625 C 392.675781 342.675781 393.4375 342.027344 394.4375 341.167969 C 395.640625 342.785156 396.777344 344.148438 397.699219 345.640625 Z M 336.207031 126.703125 C 335.234375 124.398438 334.34375 122.285156 333.371094 119.96875 C 334.296875 119.53125 335.023438 119.183594 336.007812 118.71875 C 337.164062 121.023438 338.121094 122.933594 339.132812 124.949219 C 338.132812 125.550781 337.347656 126.019531 336.207031 126.703125 Z M 110.949219 359.152344 C 109.378906 359.664062 108.355469 360.066406 107.300781 360.324219 C 104.933594 360.902344 102.511719 358.550781 103.179688 356.234375 C 103.296875 355.820312 104.625 355.296875 105.035156 355.507812 C 106.929688 356.5 108.695312 357.730469 110.949219 359.152344 Z M 91.214844 264.324219 C 91.875 269.589844 89.335938 271.660156 83.660156 270.796875 C 85.234375 267.515625 88.632812 266.753906 91.214844 264.324219 Z M 186.15625 308.613281 C 182.945312 307.132812 180.648438 306.070312 178.007812 304.855469 C 178.636719 303.71875 179.078125 302.910156 179.691406 301.800781 C 181.765625 302.964844 183.8125 303.914062 185.59375 305.226562 C 186.128906 305.617188 185.929688 307.019531 186.15625 308.613281 Z M 85.445312 339.9375 C 86.886719 340.78125 88.507812 341.328125 90.015625 341.996094 C 89.011719 345.328125 87.472656 345.285156 81.480469 341.941406 C 81.992188 339.324219 83.136719 338.570312 85.445312 339.9375 Z M 138.128906 321.410156 C 139.015625 320.636719 139.761719 319.984375 140.792969 319.082031 C 142.75 321.589844 144.421875 323.730469 146.1875 326 C 145.441406 326.675781 144.839844 327.230469 143.960938 328.023438 C 142.007812 325.804688 140.160156 323.710938 138.128906 321.410156 Z M 239.660156 245.144531 C 236.773438 246.003906 234.675781 246.625 232.308594 247.335938 C 232.308594 244.800781 232.308594 242.597656 232.308594 239.625 C 234.765625 241.472656 236.867188 243.050781 239.660156 245.144531 Z M 260.59375 303.699219 C 261.058594 301.707031 263.070312 300.070312 264.4375 298.285156 C 264.828125 298.480469 265.21875 298.679688 265.613281 298.875 C 265.339844 301.734375 265.0625 304.589844 264.78125 307.441406 C 264.503906 307.589844 264.226562 307.738281 263.945312 307.894531 C 262.738281 306.472656 260.347656 304.785156 260.59375 303.699219 Z M 434.71875 436.3125 C 437.714844 438.226562 440.609375 440.085938 443.800781 442.128906 C 443.089844 443.089844 442.519531 443.867188 441.773438 444.875 C 438.808594 442.8125 436.050781 440.886719 433.046875 438.789062 C 433.6875 437.835938 434.101562 437.230469 434.71875 436.3125 Z M 373.371094 277.390625 C 373.007812 276.972656 372.792969 276.421875 372.515625 275.921875 C 370.183594 271.6875 370.753906 270.167969 375.855469 267.851562 C 375.855469 270.992188 375.90625 273.976562 375.796875 276.957031 C 375.78125 277.433594 375.121094 278.058594 374.613281 278.277344 C 374.363281 278.386719 373.710938 277.785156 373.371094 277.390625 Z M 385.734375 281.4375 C 385.296875 282.480469 383.980469 283.152344 383.066406 283.992188 C 382.378906 283 381.195312 282.050781 381.09375 281 C 380.871094 278.707031 381.195312 276.355469 381.320312 273.609375 C 385.292969 275.789062 386.894531 278.644531 385.734375 281.4375 Z M 356.09375 112.570312 C 354.335938 111.546875 352.679688 110.585938 350.894531 109.546875 C 353.238281 108.398438 355.589844 107.261719 357.949219 106.136719 C 357.320312 108.324219 356.75 110.300781 356.09375 112.570312 Z M 149.234375 307.8125 C 147.566406 310.308594 146.085938 312.917969 144.210938 315.207031 C 142.582031 317.203125 142.289062 317.046875 139.863281 315.085938 C 141.601562 312.625 143.269531 310.34375 144.851562 308.003906 C 146.027344 306.246094 147.308594 306.28125 149.234375 307.8125 Z M 434.75 81.519531 C 434.101562 79.550781 432.246094 77.304688 435.042969 74.875 C 437.492188 78.554688 439.808594 82.035156 442.355469 85.871094 C 438.09375 86.070312 435.828125 84.832031 434.75 81.519531 Z M 167.558594 241.875 C 166.769531 241.761719 166.066406 241.042969 165.320312 240.597656 C 165.441406 240.273438 165.570312 239.949219 165.695312 239.625 C 169.292969 238.605469 172.882812 237.582031 176.480469 236.5625 C 177.695312 240.347656 176.59375 242.0625 172.910156 242.128906 C 171.125 242.164062 169.316406 242.121094 167.558594 241.875 Z M 300.746094 156.375 C 299.75 156.113281 298.859375 155.878906 297.875 155.613281 C 297.5625 155.53125 297.238281 155.445312 296.898438 155.355469 C 298.179688 151.21875 299.394531 147.300781 300.726562 143.011719 C 301.964844 143.46875 302.804688 143.78125 303.84375 144.167969 C 303 147.503906 302.183594 150.71875 301.328125 154.082031 C 301.136719 154.84375 300.941406 155.597656 300.746094 156.375 Z M 452.855469 74.628906 C 450.921875 68.523438 451.683594 64.855469 455.675781 62.570312 C 455.75 64.867188 455.796875 67.15625 455.824219 69.453125 C 454.859375 71.132812 453.886719 72.839844 452.855469 74.628906 Z M 261.910156 282.523438 C 259.605469 280.117188 257.6875 278.109375 255.421875 275.742188 C 259.363281 274.433594 262.792969 273.296875 267.050781 271.882812 C 265.195312 275.726562 263.675781 278.871094 261.910156 282.523438 Z M 272.542969 326.160156 C 273.554688 330.308594 269.652344 334.652344 262.136719 335.964844 C 261.246094 332.800781 262.359375 330.667969 265.730469 329.15625 C 267.9375 328.167969 270.148438 327.210938 272.542969 326.160156 Z M 394.910156 112.820312 C 394.808594 112.742188 394.734375 112.667969 394.636719 112.597656 C 391.859375 110.488281 391.402344 108.332031 393.144531 105.839844 C 393.472656 105.382812 393.839844 104.933594 394.257812 104.546875 C 397.703125 101.363281 401.167969 98.1875 404.5 95.128906 C 404.488281 95 404.605469 95.351562 404.5625 95.683594 C 404.078125 99.914062 403.574219 104.171875 403.03125 108.777344 C 402.820312 108.898438 402.613281 109.027344 402.402344 109.144531 C 401.964844 109.402344 401.523438 109.652344 401.089844 109.914062 C 401.039062 109.875 400.992188 109.839844 400.941406 109.796875 C 399.320312 108.511719 397.765625 107.28125 396 105.875 C 395.621094 108.289062 395.296875 110.347656 394.964844 112.453125 C 394.945312 112.570312 394.929688 112.695312 394.910156 112.820312 Z M 622.277344 254.691406 C 622.277344 273.34375 612.613281 288.460938 600.691406 288.460938 C 588.769531 288.460938 579.105469 273.34375 579.105469 254.691406 C 579.105469 236.039062 588.769531 220.917969 600.691406 220.917969 C 612.613281 220.917969 622.277344 236.039062 622.277344 254.691406 Z M 579.105469 318.734375 C 578.699219 318.734375 578.292969 318.554688 578.019531 318.207031 C 553.230469 287.023438 553.816406 257.320312 558.679688 237.890625 C 563.933594 216.871094 574.890625 203.429688 575.351562 202.867188 C 575.835938 202.277344 576.710938 202.195312 577.304688 202.683594 C 577.890625 203.167969 577.972656 204.042969 577.488281 204.628906 C 577.378906 204.765625 566.425781 218.230469 561.335938 238.675781 C 554.53125 266.015625 560.878906 292.191406 580.191406 316.484375 C 580.664062 317.082031 580.566406 317.957031 579.96875 318.429688 C 579.710938 318.636719 579.40625 318.734375 579.105469 318.734375 Z M 585.867188 200.390625 L 585.867188 200.386719 L 430.996094 144.671875 C 420.601562 178.214844 413.757812 220.761719 416.96875 272.636719 C 420.417969 328.351562 430.015625 368.695312 439.976562 396.742188 L 593.351562 322.464844 C 600.535156 322.464844 607.265625 319.4375 613.066406 314.183594 C 624.820312 303.523438 632.730469 283.648438 632.730469 260.867188 C 632.730469 232.679688 620.621094 208.929688 604.101562 201.605469 C 600.6875 200.09375 597.082031 199.265625 593.351562 199.265625 C 590.796875 199.265625 588.289062 199.660156 585.867188 200.390625 "/>
</g>
</svg>
